<svg width="48" height="49" viewBox="0 0 48 49" fill="none" xmlns="http://www.w3.org/2000/svg">
<path d="M40.2688 43.8524C40.1125 43.8526 39.9608 43.7994 39.8389 43.7016L20.2441 27.9424C20.2249 27.9267 20.2064 27.9102 20.1892 27.8931L5.72836 13.4351C3.6753 11.3827 1.91602 9.05618 0.500526 6.52181C0.0805973 5.765 -0.08155 4.89211 0.0385852 4.03503C0.15872 3.17794 0.55461 2.38324 1.16644 1.77099C1.77826 1.15875 2.57277 0.762234 3.42992 0.641364C4.28707 0.520494 5.16029 0.681835 5.91761 1.10101C8.45364 2.51628 10.7815 4.27569 12.835 6.32916L27.2973 20.7865C27.3144 20.8036 27.3309 20.8221 27.3466 20.8413L43.1083 40.4335C43.2143 40.5652 43.2679 40.7314 43.2588 40.9002C43.2497 41.069 43.1785 41.2285 43.0589 41.3481L40.7536 43.6529C40.69 43.7165 40.6144 43.7669 40.5311 43.8012C40.4479 43.8354 40.3588 43.8528 40.2688 43.8524ZM21.1328 26.8969L40.2187 42.2475L41.6539 40.8126L26.3009 21.7298L11.8668 7.29856C9.90331 5.33531 7.67768 3.65298 5.25316 2.29938C4.75641 2.02443 4.18366 1.91858 3.62142 1.99782C3.05919 2.07705 2.53802 2.33708 2.13664 2.7386C1.73527 3.14013 1.4755 3.66134 1.39657 4.22351C1.31764 4.78568 1.42385 5.35826 1.69914 5.85475C3.05256 8.27847 4.73503 10.5032 6.69863 12.4657L21.1328 26.8969Z" fill="white"/>
<path d="M41.0327 39.6383C40.8971 39.6382 40.7645 39.598 40.6518 39.5227C40.5391 39.4473 40.4512 39.3403 40.3993 39.215C40.3474 39.0898 40.3338 38.9519 40.3603 38.819C40.3867 38.686 40.452 38.5639 40.5479 38.468L46.3448 32.6722L45.0701 31.3977C44.9076 31.237 44.7079 31.1188 44.4888 31.0538C44.2696 30.9887 44.0378 30.9787 43.8139 31.0248L35.6506 32.7503C35.4726 32.788 35.287 32.7534 35.1345 32.6542C34.9821 32.555 34.8753 32.3993 34.8377 32.2214C34.8 32.0435 34.8346 31.8579 34.9338 31.7055C35.033 31.5531 35.1887 31.4463 35.3667 31.4087L43.53 29.6831C43.9774 29.5914 44.4405 29.6115 44.8782 29.7415C45.316 29.8715 45.7149 30.1074 46.0397 30.4283L47.7992 32.1875C47.9278 32.316 48 32.4904 48 32.6722C48 32.854 47.9278 33.0283 47.7992 33.1569L41.5175 39.4374C41.454 39.5013 41.3784 39.5519 41.2952 39.5864C41.212 39.6209 41.1228 39.6385 41.0327 39.6383Z" fill="white"/>
<path d="M32.0773 48.5918C31.8955 48.5918 31.7211 48.5195 31.5925 48.3909L29.833 46.6317C29.5118 46.3072 29.2756 45.9083 29.1456 45.4706C29.0156 45.0329 28.9957 44.5698 29.0876 44.1226L30.8136 35.9643C30.8512 35.7864 30.958 35.6307 31.1105 35.5315C31.2629 35.4323 31.4485 35.3977 31.6265 35.4354C31.8044 35.473 31.9601 35.5798 32.0593 35.7322C32.1586 35.8846 32.1931 36.0702 32.1555 36.2481L30.4296 44.4098C30.3835 44.6335 30.3935 44.8651 30.4586 45.0839C30.5237 45.3028 30.6418 45.5022 30.8026 45.6644L32.0773 46.9396L37.8743 41.1438C38.0036 41.0189 38.1768 40.9498 38.3566 40.9513C38.5364 40.9529 38.7084 41.025 38.8355 41.1521C38.9627 41.2792 39.0348 41.4512 39.0363 41.6309C39.0379 41.8107 38.9688 41.9839 38.8439 42.1132L32.5621 48.3937C32.4331 48.5212 32.2588 48.5925 32.0773 48.5918Z" fill="white"/>
<path d="M43.7254 45.0035C43.5436 45.0035 43.3692 44.9312 43.2406 44.8027L34.4903 36.0507C34.3654 35.9214 34.2963 35.7482 34.2979 35.5684C34.2994 35.3887 34.3716 35.2167 34.4987 35.0896C34.6258 34.9625 34.7978 34.8904 34.9776 34.8889C35.1574 34.8873 35.3306 34.9564 35.4599 35.0813L44.2102 43.8333C44.3061 43.9291 44.3714 44.0513 44.3978 44.1843C44.4243 44.3172 44.4107 44.455 44.3588 44.5803C44.3069 44.7055 44.2191 44.8126 44.1063 44.8879C43.9936 44.9633 43.861 45.0035 43.7254 45.0035Z" fill="white"/>
<path d="M27.1457 22.3708C26.9979 22.3709 26.854 22.3232 26.7355 22.2348C26.617 22.1464 26.5303 22.0222 26.4882 21.8805C26.4461 21.7388 26.4509 21.5873 26.5019 21.4486C26.553 21.3099 26.6474 21.1914 26.7713 21.1107L42.642 10.7909L39.0763 7.22591C38.8332 6.98414 38.5263 6.81646 38.1915 6.74242C37.8566 6.66838 37.5076 6.69102 37.1852 6.80771L18.682 13.5517C18.5115 13.6127 18.3237 13.6038 18.1596 13.5269C17.9956 13.4499 17.8687 13.3112 17.8067 13.141C17.7446 12.9708 17.7525 12.783 17.8285 12.6186C17.9045 12.4542 18.0425 12.3265 18.2123 12.2635L36.7148 5.51884C37.2826 5.31366 37.8971 5.27399 38.4866 5.40447C39.0761 5.53495 39.6164 5.8302 40.0446 6.25583L44.2095 10.42C44.2817 10.4922 44.3368 10.5796 44.3709 10.6758C44.4049 10.772 44.4171 10.8745 44.4065 10.976C44.3958 11.0775 44.3626 11.1754 44.3093 11.2624C44.2561 11.3495 44.184 11.4235 44.0985 11.4792L27.5194 22.2598C27.4082 22.3322 27.2784 22.3707 27.1457 22.3708Z" fill="white"/>
<path d="M21.7307 12.4033C21.5489 12.4033 21.3745 12.331 21.2459 12.2024L19.7668 10.7237C19.6394 10.5963 19.5384 10.4452 19.4694 10.2788C19.4005 10.1124 19.365 9.93404 19.365 9.75393C19.365 9.57382 19.4005 9.39548 19.4694 9.22909C19.5384 9.0627 19.6394 8.91152 19.7668 8.78419L21.1636 7.38906C21.4249 7.13958 21.7723 7.00037 22.1336 7.00037C22.4948 7.00037 22.8422 7.13958 23.1035 7.38906L25.6804 9.96611C25.8053 10.0954 25.8744 10.2686 25.8728 10.4483C25.8713 10.6281 25.7992 10.8 25.672 10.9272C25.5449 11.0543 25.3729 11.1264 25.1931 11.1279C25.0133 11.1295 24.8401 11.0604 24.7108 10.9355L22.1332 8.35845L20.7364 9.75496L22.2162 11.233C22.3121 11.3289 22.3773 11.4511 22.4038 11.584C22.4302 11.717 22.4166 11.8548 22.3648 11.9801C22.3129 12.1053 22.225 12.2124 22.1123 12.2877C21.9995 12.3631 21.867 12.4033 21.7314 12.4033H21.7307Z" fill="white"/>
<path d="M10.3054 45.0035C10.1236 45.0035 9.94921 44.9312 9.82065 44.8027L5.65566 40.6392C5.22953 40.2112 4.93396 39.6709 4.80343 39.0813C4.67291 38.4917 4.71283 37.8771 4.91853 37.3094L11.6645 18.8107C11.7276 18.6408 11.8552 18.5029 12.0197 18.4269C12.1842 18.3509 12.372 18.343 12.5422 18.4051C12.7125 18.4671 12.8512 18.594 12.9282 18.758C13.0051 18.922 13.014 19.1097 12.953 19.2803L6.20697 37.779C6.09015 38.1013 6.06744 38.4501 6.14151 38.7848C6.21558 39.1195 6.38336 39.4262 6.62525 39.6691L10.1909 43.2341L20.5136 27.3672C20.5621 27.2905 20.6254 27.2241 20.6998 27.172C20.7741 27.1198 20.8581 27.083 20.9469 27.0636C21.0356 27.0442 21.1273 27.0427 21.2167 27.059C21.306 27.0754 21.3913 27.1093 21.4674 27.1588C21.5435 27.2084 21.609 27.2726 21.6601 27.3476C21.7113 27.4227 21.7469 27.5072 21.7651 27.5962C21.7833 27.6851 21.7836 27.7768 21.7661 27.8659C21.7485 27.955 21.7134 28.0398 21.6628 28.1152L10.8801 44.6916C10.8244 44.7771 10.7503 44.8491 10.6632 44.9024C10.5761 44.9556 10.4783 44.9888 10.3768 44.9994C10.3531 45.0021 10.3293 45.0035 10.3054 45.0035Z" fill="white"/>
<path d="M9.85015 26.4781C9.6683 26.478 9.49392 26.4058 9.36535 26.2772L6.78778 23.6994C6.53068 23.4423 6.38625 23.0936 6.38625 22.73C6.38625 22.3665 6.53068 22.0178 6.78778 21.7607L8.18456 20.3641C8.44575 20.1145 8.79316 19.9752 9.1545 19.9752C9.51583 19.9752 9.86324 20.1145 10.1244 20.3641L11.6035 21.8422C11.7324 21.9708 11.805 22.1453 11.8053 22.3273C11.8055 22.5094 11.7334 22.6841 11.6049 22.813C11.4763 22.9419 11.3018 23.0145 11.1197 23.0147C10.9376 23.015 10.7628 22.9429 10.6339 22.8144L9.15415 21.3335L7.75737 22.73L10.3349 25.3078C10.4308 25.4037 10.4961 25.5258 10.5225 25.6588C10.549 25.7917 10.5354 25.9296 10.4835 26.0548C10.4316 26.1801 10.3438 26.2871 10.231 26.3625C10.1183 26.4378 9.98574 26.478 9.85015 26.4781Z" fill="white"/>
</svg>
