<svg width="48" height="43" viewBox="0 0 48 43" fill="none" xmlns="http://www.w3.org/2000/svg">
<path d="M27.6164 31.1242H4.38925C3.75318 31.1228 3.14357 30.8695 2.6938 30.4198C2.24402 29.9701 1.9907 29.3607 1.98925 28.7247V18.4212C1.9907 17.7852 2.24402 17.1757 2.6938 16.726C3.14357 16.2763 3.75318 16.0231 4.38925 16.0216H13.0478C13.2647 16.0218 13.4761 15.9534 13.6519 15.8262L18.0404 12.6506C18.4497 12.3539 18.9426 12.1945 19.4482 12.1954H27.6164C28.2525 12.1967 28.8623 12.4499 29.3121 12.8996C29.7619 13.3493 30.0151 13.9589 30.0164 14.5949V28.7227C30.0157 29.359 29.7627 29.9691 29.3128 30.4193C28.8629 30.8695 28.2529 31.123 27.6164 31.1242ZM4.38925 17.3907C4.11646 17.3907 3.85484 17.4991 3.66194 17.6919C3.46905 17.8848 3.36068 18.1464 3.36068 18.4191V28.7227C3.36068 28.9954 3.46905 29.257 3.66194 29.4498C3.85484 29.6427 4.11646 29.751 4.38925 29.751H27.6144C27.8872 29.751 28.1488 29.6427 28.3417 29.4498C28.5346 29.257 28.6429 28.9954 28.6429 28.7227V14.5956C28.6429 14.3229 28.5346 14.0613 28.3417 13.8685C28.1488 13.6756 27.8872 13.5673 27.6144 13.5673H19.4516C19.2347 13.5671 19.0232 13.6354 18.8475 13.7626L14.4555 16.9355C14.0463 17.2324 13.5534 17.3918 13.0478 17.3907H4.38925Z" fill="white"/>
<path d="M27.3339 42.0503H4.67382C3.43425 42.0503 2.24544 41.558 1.36893 40.6816C0.492419 39.8053 0 38.6167 0 37.3774C0 36.1381 0.492419 34.9495 1.36893 34.0732C2.24544 33.1968 3.43425 32.7045 4.67382 32.7045H27.3339C28.5735 32.7045 29.7623 33.1968 30.6388 34.0732C31.5153 34.9495 32.0077 36.1381 32.0077 37.3774C32.0077 38.6167 31.5153 39.8053 30.6388 40.6816C29.7623 41.558 28.5735 42.0503 27.3339 42.0503ZM4.67382 34.0756C3.79797 34.0756 2.958 34.4235 2.33868 35.0427C1.71936 35.6619 1.37143 36.5017 1.37143 37.3774C1.37143 38.2531 1.71936 39.0929 2.33868 39.7121C2.958 40.3313 3.79797 40.6791 4.67382 40.6791H27.3339C28.2098 40.6791 29.0497 40.3313 29.6691 39.7121C30.2884 39.0929 30.6363 38.2531 30.6363 37.3774C30.6363 36.5017 30.2884 35.6619 29.6691 35.0427C29.0497 34.4235 28.2098 34.0756 27.3339 34.0756H4.67382Z" fill="white"/>
<path d="M5.67636 39.8722C5.18252 39.8724 4.69974 39.726 4.28911 39.4517C3.87848 39.1775 3.55846 38.7876 3.36954 38.3314C3.18062 37.8752 3.13129 37.3732 3.2278 36.889C3.32431 36.4048 3.56232 35.9601 3.91171 35.6111C4.26109 35.2622 4.70616 35.0247 5.19058 34.9288C5.675 34.8328 6.177 34.8827 6.63307 35.0721C7.08913 35.2615 7.47876 35.5819 7.75264 35.9927C8.02652 36.4036 8.17235 36.8864 8.17167 37.3801C8.17004 38.041 7.90653 38.6744 7.43884 39.1415C6.97115 39.6085 6.3374 39.8713 5.67636 39.8722ZM5.67636 36.253C5.45391 36.2529 5.23642 36.3187 5.05139 36.4422C4.86637 36.5657 4.72212 36.7412 4.6369 36.9466C4.55168 37.1521 4.52931 37.3782 4.57263 37.5963C4.61594 37.8145 4.72299 38.0149 4.88024 38.1722C5.03748 38.3295 5.23786 38.4366 5.45603 38.4801C5.67419 38.5235 5.90034 38.5013 6.10587 38.4162C6.31139 38.3311 6.48707 38.187 6.61067 38.0021C6.73427 37.8172 6.80024 37.5998 6.80024 37.3774C6.80006 37.0794 6.68161 36.7936 6.4709 36.5828C6.26019 36.372 5.97444 36.2534 5.67636 36.253Z" fill="white"/>
<path d="M12.5616 39.8722C12.0677 39.8724 11.585 39.726 11.1743 39.4517C10.7637 39.1775 10.4437 38.7876 10.2548 38.3314C10.0658 37.8752 10.0165 37.3732 10.113 36.889C10.2095 36.4048 10.4475 35.9601 10.7969 35.6111C11.1463 35.2622 11.5914 35.0247 12.0758 34.9288C12.5602 34.8328 13.0622 34.8827 13.5183 35.0721C13.9744 35.2615 14.364 35.5819 14.6379 35.9927C14.9117 36.4036 15.0576 36.8864 15.0569 37.3801C15.0553 38.041 14.7918 38.6744 14.3241 39.1415C13.8564 39.6085 13.2226 39.8713 12.5616 39.8722ZM12.5616 36.253C12.3391 36.2529 12.1216 36.3187 11.9366 36.4422C11.7516 36.5657 11.6073 36.7412 11.5221 36.9466C11.4369 37.1521 11.4145 37.3782 11.4579 37.5963C11.5012 37.8145 11.6082 38.0149 11.7655 38.1722C11.9227 38.3295 12.1231 38.4366 12.3413 38.4801C12.5594 38.5235 12.7856 38.5013 12.9911 38.4162C13.1966 38.3311 13.3723 38.187 13.4959 38.0021C13.6195 37.8172 13.6855 37.5998 13.6855 37.3774C13.6853 37.0794 13.5668 36.7936 13.3561 36.5828C13.1454 36.372 12.8597 36.2534 12.5616 36.253Z" fill="white"/>
<path d="M19.4468 39.8722C18.9531 39.8721 18.4704 39.7255 18.06 39.4511C17.6495 39.1766 17.3297 38.7866 17.141 38.3304C16.9523 37.8742 16.9032 37.3723 16.9998 36.8882C17.0965 36.404 17.3346 35.9595 17.6841 35.6107C18.0335 35.2619 18.4786 35.0245 18.9629 34.9287C19.4473 34.8328 19.9493 34.8828 20.4052 35.0722C20.8612 35.2616 21.2508 35.582 21.5246 35.9928C21.7984 36.4037 21.9442 36.8865 21.9435 37.3801C21.9419 38.0413 21.6782 38.6748 21.2102 39.1419C20.7422 39.6091 20.1081 39.8717 19.4468 39.8722ZM19.4468 36.253C19.2246 36.2532 19.0073 36.3192 18.8225 36.4427C18.6378 36.5662 18.4937 36.7417 18.4086 36.947C18.3235 37.1523 18.3012 37.3782 18.3445 37.5962C18.3877 37.8141 18.4946 38.0144 18.6516 38.1717C18.8086 38.329 19.0088 38.4362 19.2267 38.4799C19.4447 38.5235 19.6706 38.5016 19.8761 38.4169C20.0816 38.3322 20.2574 38.1885 20.3813 38.004C20.5052 37.8194 20.5716 37.6024 20.5721 37.3801C20.5724 37.2322 20.5435 37.0857 20.487 36.949C20.4306 36.8122 20.3478 36.688 20.2432 36.5833C20.1387 36.4786 20.0146 36.3955 19.8779 36.3389C19.7413 36.2822 19.5948 36.253 19.4468 36.253Z" fill="white"/>
<path d="M26.3321 39.8722C25.8383 39.8724 25.3555 39.726 24.9448 39.4517C24.5342 39.1775 24.2142 38.7876 24.0253 38.3314C23.8364 37.8752 23.787 37.3732 23.8835 36.889C23.98 36.4048 24.2181 35.9601 24.5674 35.6111C24.9168 35.2622 25.3619 35.0247 25.8463 34.9288C26.3307 34.8328 26.8327 34.8827 27.2888 35.0721C27.7449 35.2615 28.1345 35.5819 28.4084 35.9927C28.6822 36.4036 28.8281 36.8864 28.8274 37.3801C28.8258 38.041 28.5623 38.6744 28.0946 39.1415C27.6269 39.6085 26.9931 39.8713 26.3321 39.8722ZM26.3321 36.253C26.1096 36.2529 25.8921 36.3187 25.7071 36.4422C25.5221 36.5657 25.3779 36.7412 25.2926 36.9466C25.2074 37.1521 25.185 37.3782 25.2284 37.5963C25.2717 37.8145 25.3787 38.0149 25.536 38.1722C25.6932 38.3295 25.8936 38.4366 26.1118 38.4801C26.3299 38.5235 26.5561 38.5013 26.7616 38.4162C26.9671 38.3311 27.1428 38.187 27.2664 38.0021C27.39 37.8172 27.456 37.5998 27.456 37.3774C27.4558 37.0794 27.3373 36.7936 27.1266 36.5828C26.9159 36.372 26.6302 36.2534 26.3321 36.253Z" fill="white"/>
<path d="M26.8025 34.0757H5.20595C5.02408 34.0757 4.84967 34.0034 4.72107 33.8749C4.59248 33.7463 4.52023 33.5719 4.52023 33.3901V30.4421C4.52023 30.2603 4.59248 30.0859 4.72107 29.9573C4.84967 29.8287 5.02408 29.7565 5.20595 29.7565H26.8025C26.9844 29.7565 27.1588 29.8287 27.2874 29.9573C27.416 30.0859 27.4882 30.2603 27.4882 30.4421V33.3901C27.4882 33.5719 27.416 33.7463 27.2874 33.8749C27.1588 34.0034 26.9844 34.0757 26.8025 34.0757ZM5.89166 32.7045H26.1168V31.1277H5.89166V32.7045Z" fill="white"/>
<path d="M29.3328 24.8217H19.2528C18.8709 24.8217 18.5046 24.67 18.2346 24.4C17.9645 24.13 17.8128 23.7638 17.8128 23.382V16.856C17.8128 16.6669 17.85 16.4797 17.9224 16.305C17.9948 16.1303 18.1008 15.9716 18.2346 15.8379C18.3683 15.7043 18.527 15.5982 18.7017 15.5259C18.8764 15.4535 19.0637 15.4163 19.2528 15.4163H29.3328C29.5146 15.4163 29.6891 15.4885 29.8177 15.6171C29.9462 15.7456 30.0185 15.92 30.0185 16.1018V24.1361C30.0185 24.318 29.9462 24.4923 29.8177 24.6209C29.6891 24.7495 29.5146 24.8217 29.3328 24.8217ZM19.2548 16.7854C19.2367 16.7854 19.2192 16.7926 19.2064 16.8054C19.1935 16.8183 19.1863 16.8357 19.1863 16.8539V23.3806C19.1863 23.3988 19.1935 23.4162 19.2064 23.4291C19.2192 23.442 19.2367 23.4492 19.2548 23.4492H28.6491V16.7854H19.2548Z" fill="white"/>
<path d="M42.1892 17.6005C42.0545 17.6005 41.9228 17.5609 41.8105 17.4865C41.6981 17.4121 41.6102 17.3063 41.5577 17.1823L37.4002 7.36963C37.3292 7.20217 37.3276 7.01336 37.3958 6.84474C37.4641 6.67612 37.5965 6.5415 37.764 6.4705C37.9315 6.39949 38.1203 6.39792 38.289 6.46613C38.4576 6.53434 38.5923 6.66673 38.6633 6.8342L42.8208 16.6476C42.8649 16.7518 42.8826 16.8654 42.8721 16.9781C42.8617 17.0908 42.8235 17.1992 42.761 17.2936C42.6984 17.388 42.6135 17.4654 42.5137 17.519C42.4139 17.5725 42.3025 17.6005 42.1892 17.6005Z" fill="white"/>
<path d="M44.4301 16.5173C44.2964 16.5176 44.1655 16.4789 44.0535 16.4058C43.9416 16.3327 43.8534 16.2285 43.7999 16.106L39.6212 6.46056C39.5489 6.29364 39.5459 6.10485 39.6128 5.93571C39.6798 5.76658 39.8112 5.63096 39.9781 5.55868C40.1451 5.4864 40.3339 5.48339 40.5031 5.55032C40.6722 5.61724 40.8079 5.74861 40.8802 5.91552L45.0589 15.5589C45.1045 15.6632 45.1233 15.7773 45.1137 15.8907C45.1042 16.0042 45.0665 16.1135 45.0041 16.2087C44.9417 16.304 44.8565 16.3822 44.7563 16.4363C44.6561 16.4904 44.544 16.5187 44.4301 16.5187V16.5173Z" fill="white"/>
<path d="M25.994 13.5645H23.0489C22.867 13.5645 22.6926 13.4923 22.564 13.3637C22.4354 13.2352 22.3632 13.0608 22.3632 12.8789V8.61876C22.3611 8.17869 22.4945 7.74865 22.7454 7.38705C22.9963 7.02546 23.3524 6.74985 23.7655 6.59768L35.1483 2.34709C35.3187 2.28345 35.5074 2.2901 35.6729 2.36557C35.8384 2.44104 35.9672 2.57915 36.0308 2.74952C36.0945 2.9199 36.0878 3.10857 36.0123 3.27404C35.9368 3.43951 35.7987 3.56822 35.6283 3.63186L24.2455 7.88245C24.095 7.93796 23.9652 8.03837 23.8737 8.17007C23.7822 8.30177 23.7334 8.45841 23.7339 8.61876V12.1934H25.3076V9.63479C25.3077 9.4949 25.3506 9.35837 25.4305 9.24355C25.5104 9.12872 25.6235 9.04108 25.7547 8.9924L35.6057 5.32661C35.69 5.2951 35.7798 5.28052 35.8698 5.28369C35.9598 5.28686 36.0483 5.30772 36.1303 5.34509C36.2122 5.38246 36.286 5.4356 36.3474 5.50148C36.4088 5.56736 36.4567 5.64469 36.4882 5.72905C36.5197 5.81341 36.5343 5.90315 36.5311 5.99314C36.5279 6.08314 36.5071 6.17163 36.4697 6.25356C36.4323 6.3355 36.3792 6.40927 36.3133 6.47066C36.2474 6.53206 36.17 6.57988 36.0857 6.61139L26.6797 10.1113V12.8789C26.6797 13.0608 26.6075 13.2352 26.4789 13.3637C26.3503 13.4923 26.1759 13.5645 25.994 13.5645Z" fill="white"/>
<path d="M38.0914 7.70694C37.3773 7.70694 36.6793 7.49522 36.0856 7.09857C35.4918 6.70191 35.0291 6.13813 34.7559 5.47853C34.4826 4.81893 34.4112 4.09313 34.5505 3.39292C34.6899 2.69271 35.0338 2.04955 35.5388 1.54477C36.0438 1.03999 36.6871 0.696267 37.3875 0.557068C38.0879 0.417869 38.8138 0.489449 39.4735 0.762754C40.1331 1.03606 40.6969 1.49881 41.0936 2.09249C41.4902 2.68618 41.7018 3.38412 41.7017 4.09805C41.7004 5.05492 41.3196 5.97222 40.6428 6.64876C39.966 7.3253 39.0484 7.70585 38.0914 7.70694ZM38.0914 1.85895C37.6486 1.85895 37.2158 1.99021 36.8476 2.23614C36.4795 2.48207 36.1925 2.83163 36.023 3.2406C35.8536 3.64958 35.8092 4.09962 35.8955 4.53381C35.9818 4.968 36.195 5.36685 36.508 5.67992C36.8211 5.993 37.2199 6.20624 37.6542 6.29269C38.0884 6.37913 38.5386 6.3349 38.9477 6.16559C39.3568 5.99627 39.7065 5.70948 39.9526 5.34146C40.1987 4.97345 40.3301 4.54074 40.3302 4.09805C40.3297 3.50449 40.0937 2.93539 39.6739 2.51561C39.2542 2.09584 38.6851 1.85968 38.0914 1.85895Z" fill="white"/>
<path d="M38.0914 4.9516C38.5629 4.9516 38.9451 4.56946 38.9451 4.09806C38.9451 3.62666 38.5629 3.24451 38.0914 3.24451C37.6199 3.24451 37.2377 3.62666 37.2377 4.09806C37.2377 4.56946 37.6199 4.9516 38.0914 4.9516Z" fill="white"/>
<path d="M38.0914 5.29508C37.8547 5.2944 37.6236 5.22362 37.4272 5.09168C37.2307 4.95974 37.0778 4.77255 36.9877 4.55377C36.8976 4.33498 36.8744 4.09441 36.921 3.86244C36.9676 3.63046 37.0819 3.4175 37.2495 3.25043C37.417 3.08337 37.6304 2.9697 37.8625 2.92379C38.0947 2.87788 38.3352 2.90179 38.5538 2.99249C38.7724 3.08319 38.9591 3.23661 39.0905 3.43339C39.2219 3.63016 39.2921 3.86146 39.2921 4.09806C39.292 4.25552 39.2608 4.41141 39.2004 4.55682C39.14 4.70224 39.0515 4.83431 38.94 4.94549C38.8285 5.05667 38.6961 5.14478 38.5505 5.20476C38.4049 5.26475 38.2489 5.29544 38.0914 5.29508ZM38.0914 3.5873C37.9902 3.5873 37.8913 3.6173 37.8072 3.6735C37.7231 3.72969 37.6575 3.80957 37.6188 3.90302C37.5801 3.99648 37.5699 4.09931 37.5897 4.19852C37.6094 4.29773 37.6581 4.38886 37.7297 4.46039C37.8012 4.53192 37.8924 4.58062 37.9916 4.60036C38.0908 4.62009 38.1937 4.60996 38.2872 4.57125C38.3806 4.53255 38.4605 4.46699 38.5167 4.38289C38.5729 4.29878 38.6029 4.1999 38.6029 4.09874C38.603 4.03152 38.5899 3.96494 38.5642 3.90281C38.5385 3.84068 38.5009 3.78422 38.4534 3.73666C38.4058 3.68909 38.3494 3.65136 38.2873 3.62561C38.2252 3.59987 38.1586 3.58662 38.0914 3.58662V3.5873Z" fill="white"/>
<path d="M40.1424 30.1589C38.5736 30.1587 37.0433 29.6739 35.7607 28.7708C34.4782 27.8677 33.5061 26.5904 32.9773 25.1138C32.916 24.943 32.9249 24.7549 33.002 24.5907C33.0791 24.4265 33.2182 24.2995 33.3888 24.2376L42.1933 21.097L42.4841 19.6812C42.5002 19.5913 42.5342 19.5054 42.584 19.4287C42.6338 19.3521 42.6984 19.2861 42.7741 19.2348C42.8498 19.1835 42.935 19.1478 43.0246 19.1299C43.1143 19.112 43.2066 19.1122 43.2962 19.1305C43.3858 19.1488 43.4708 19.1848 43.5463 19.2364C43.6218 19.288 43.6861 19.3542 43.7356 19.4311C43.7851 19.508 43.8187 19.594 43.8345 19.684C43.8503 19.7741 43.8478 19.8664 43.8274 19.9555L43.4626 21.749C43.4389 21.8645 43.3858 21.9719 43.3084 22.0609C43.2311 22.1499 43.1321 22.2174 43.021 22.257L34.5339 25.2859C35.206 26.6637 36.3623 27.7455 37.7819 28.3246C39.2014 28.9038 40.7847 28.9395 42.229 28.4251L45.6205 27.2137C46.0006 27.0767 46.3108 26.7945 46.4832 26.4292C46.6556 26.0638 46.676 25.645 46.5401 25.2646L44.6125 19.8705C44.5784 19.7849 44.5619 19.6934 44.564 19.6013C44.566 19.5092 44.5866 19.4185 44.6245 19.3345C44.6624 19.2506 44.7169 19.1751 44.7846 19.1127C44.8523 19.0503 44.9319 19.0021 45.0186 18.9711C45.1054 18.9401 45.1975 18.9268 45.2894 18.9322C45.3814 18.9376 45.4713 18.9614 45.5539 19.0023C45.6364 19.0432 45.7099 19.1002 45.7699 19.1701C45.8299 19.24 45.8752 19.3213 45.903 19.4091L47.832 24.8039C48.0894 25.527 48.0498 26.3226 47.7216 27.0166C47.3935 27.7105 46.8037 28.2461 46.0813 28.506L42.6898 29.7167C41.8723 30.0092 41.0106 30.1587 40.1424 30.1589Z" fill="white"/>
<path d="M44.0482 20.7055C43.3182 20.7058 42.6169 20.4214 42.0933 19.9128C41.5698 19.4042 41.2653 18.7115 41.2445 17.982C41.2237 17.2524 41.4883 16.5435 41.9821 16.006C42.4759 15.4684 43.1598 15.1446 43.8887 15.1033C44.6175 15.0621 45.3337 15.3066 45.885 15.7849C46.4363 16.2633 46.7793 16.9378 46.8411 17.665C46.9028 18.3922 46.6785 19.1149 46.2157 19.6793C45.753 20.2438 45.0883 20.6055 44.3629 20.6877C44.2584 20.6994 44.1533 20.7054 44.0482 20.7055ZM44.055 16.483C44.0021 16.4831 43.9493 16.4858 43.8966 16.4913C43.7103 16.5119 43.5299 16.5691 43.3657 16.6595C43.2015 16.75 43.0568 16.872 42.9399 17.0185C42.8229 17.1649 42.736 17.3331 42.6842 17.5132C42.6323 17.6933 42.6165 17.8819 42.6377 18.0681C42.6577 18.2543 42.7144 18.4346 42.8047 18.5987C42.895 18.7628 43.017 18.9073 43.1636 19.0238C43.3413 19.1665 43.5507 19.2645 43.7741 19.3096C43.9975 19.3547 44.2285 19.3456 44.4477 19.283C44.6669 19.2204 44.8678 19.1062 45.0338 18.95C45.1997 18.7937 45.3257 18.5999 45.4012 18.3849C45.4768 18.1699 45.4997 17.9399 45.468 17.7143C45.4363 17.4886 45.3509 17.2738 45.2191 17.0879C45.0872 16.902 44.9127 16.7505 44.7102 16.6459C44.5076 16.5414 44.283 16.487 44.055 16.4871V16.483Z" fill="white"/>
<path d="M44.0544 18.4109C44.3319 18.4109 44.557 18.1859 44.557 17.9084C44.557 17.6308 44.3319 17.4058 44.0544 17.4058C43.7768 17.4058 43.5517 17.6308 43.5517 17.9084C43.5517 18.1859 43.7768 18.4109 44.0544 18.4109Z" fill="white"/>
<path d="M44.0537 18.7537C43.8454 18.7532 43.6446 18.6761 43.4896 18.537C43.3347 18.3978 43.2364 18.2065 43.2137 17.9995C43.2014 17.8892 43.2109 17.7775 43.2418 17.6709C43.2727 17.5642 43.3242 17.4647 43.3936 17.378C43.4629 17.2913 43.5487 17.2191 43.6459 17.1655C43.7432 17.112 43.85 17.0781 43.9604 17.0658C44.0723 17.0503 44.1862 17.0575 44.2953 17.0867C44.4045 17.116 44.5066 17.1668 44.5958 17.2362C44.685 17.3056 44.7593 17.3922 44.8145 17.4907C44.8697 17.5893 44.9045 17.698 44.917 17.8102C44.9295 17.9225 44.9194 18.0361 44.8873 18.1444C44.8552 18.2527 44.8017 18.3535 44.7299 18.4408C44.6582 18.5281 44.5697 18.6001 44.4697 18.6527C44.3697 18.7053 44.2602 18.7373 44.1476 18.7468C44.1164 18.7508 44.0851 18.7531 44.0537 18.7537ZM43.8953 17.9262C43.8968 17.9474 43.9027 17.968 43.9126 17.9868C43.9226 18.0056 43.9363 18.0222 43.9529 18.0354C43.9695 18.0487 43.9886 18.0584 44.0092 18.0639C44.0297 18.0694 44.0512 18.0706 44.0722 18.0674C44.1142 18.0626 44.1526 18.0414 44.1791 18.0084C44.2055 17.9754 44.2179 17.9333 44.2134 17.8912C44.2113 17.8702 44.2049 17.8499 44.1948 17.8314C44.1847 17.813 44.171 17.7967 44.1545 17.7836C44.1207 17.7585 44.0791 17.7463 44.0372 17.7493C44.0161 17.7514 43.9956 17.7578 43.9769 17.7681C43.9583 17.7783 43.942 17.7922 43.9289 17.8089C43.9157 17.8252 43.9059 17.844 43.9002 17.8641C43.8944 17.8843 43.8927 17.9054 43.8953 17.9262Z" fill="white"/>
</svg>
