<svg width="48" height="25" viewBox="0 0 48 25" fill="none" xmlns="http://www.w3.org/2000/svg">
<path d="M31.511 20.1014H16.4983C16.3164 20.1014 16.142 20.0292 16.0134 19.9006C15.8848 19.7721 15.8126 19.5977 15.8126 19.4159C15.8126 19.234 15.8848 19.0596 16.0134 18.9311C16.142 18.8025 16.3164 18.7303 16.4983 18.7303H31.511C31.6928 18.7303 31.8673 18.8025 31.9959 18.9311C32.1245 19.0596 32.1967 19.234 32.1967 19.4159C32.1967 19.5977 32.1245 19.7721 31.9959 19.9006C31.8673 20.0292 31.6928 20.1014 31.511 20.1014Z" fill="white"/>
<path d="M45.9188 20.1014H40.721C40.5391 20.1014 40.3647 20.0292 40.2361 19.9006C40.1075 19.7721 40.0353 19.5977 40.0353 19.4159C40.0353 19.234 40.1075 19.0596 40.2361 18.9311C40.3647 18.8025 40.5391 18.7303 40.721 18.7303H45.9188C46.107 18.7301 46.2874 18.6553 46.4205 18.5222C46.5535 18.3892 46.6284 18.2088 46.6285 18.0207V15.0726C46.6276 14.2896 46.3685 13.5287 45.8914 12.9078C45.4143 12.2868 44.7457 11.8405 43.9892 11.6378L35.3723 9.35273C35.2472 9.31949 35.134 9.25151 35.0459 9.15665C34.9862 9.09221 29.0204 2.70797 25.5383 1.88937C25.4401 1.86613 25.3394 1.85553 25.2386 1.85784L11.4356 1.85784C10.7205 1.85921 10.0339 2.1385 9.52102 2.63667L2.10143 9.94371C1.84765 10.1896 1.65123 10.4885 1.52619 10.819C1.40114 11.1495 1.35054 11.5035 1.37799 11.8558L1.96223 18.0865C1.97818 18.2626 2.05956 18.4263 2.19031 18.5453C2.32106 18.6644 2.49169 18.7301 2.66853 18.7296H7.27457C7.45644 18.7296 7.63085 18.8018 7.75945 18.9304C7.88805 19.059 7.9603 19.2333 7.9603 19.4152C7.9603 19.597 7.88805 19.7714 7.75945 19.9C7.63085 20.0285 7.45644 20.1008 7.27457 20.1008H2.66922C2.15036 20.1027 1.64966 19.9099 1.26609 19.5605C0.882518 19.2112 0.643983 18.7307 0.597629 18.214L0.012702 11.9751C-0.0328895 11.4211 0.0445946 10.8639 0.239607 10.3433C0.434619 9.82276 0.742336 9.35175 1.14073 8.964L8.55963 1.65902C9.32961 0.909629 10.361 0.48918 11.4356 0.486652L25.2393 0.486652C25.4493 0.483275 25.659 0.506309 25.8633 0.555212C29.4682 1.4026 34.9554 7.06285 35.914 8.07547L44.3423 10.3084C45.391 10.5898 46.3176 11.2089 46.9788 12.0698C47.64 12.9308 47.9989 13.9857 48 15.0713V18.0193C47.9998 18.5712 47.7805 19.1005 47.3903 19.4909C47.0001 19.8813 46.4708 20.1009 45.9188 20.1014Z" fill="white"/>
<path d="M35.5485 9.37535L2.39904 9.37535C2.21717 9.37535 2.04276 9.30312 1.91416 9.17454C1.78556 9.04597 1.71331 8.87159 1.71331 8.68976C1.71331 8.50793 1.78556 8.33354 1.91416 8.20497C2.04276 8.0764 2.21717 8.00416 2.39904 8.00416L35.5485 8.00416C35.7304 8.00416 35.9048 8.0764 36.0334 8.20497C36.162 8.33354 36.2343 8.50793 36.2343 8.68976C36.2343 8.87159 36.162 9.04597 36.0334 9.17454C35.9048 9.30312 35.7304 9.37535 35.5485 9.37535Z" fill="white"/>
<path d="M36.1143 24.7086C35.0673 24.7086 34.0438 24.3982 33.1732 23.8167C32.3027 23.2351 31.6242 22.4085 31.2235 21.4415C30.8228 20.4744 30.7179 19.4102 30.9221 18.3835C31.1263 17.3569 31.6304 16.4138 32.3707 15.6735C33.111 14.9333 34.0542 14.4292 35.0811 14.2249C36.1079 14.0206 37.1723 14.1253 38.1397 14.5258C39.107 14.9263 39.9338 15.6045 40.5156 16.4748C41.0974 17.3451 41.408 18.3684 41.4081 19.4152C41.4066 20.8185 40.8485 22.164 39.856 23.1564C38.8636 24.1487 37.5179 24.707 36.1143 24.7086ZM36.1143 15.4936C35.3385 15.4936 34.5801 15.7236 33.9351 16.1545C33.2901 16.5854 32.7873 17.1979 32.4905 17.9144C32.1936 18.631 32.1159 19.4195 32.2673 20.1802C32.4186 20.9409 32.7922 21.6397 33.3407 22.1881C33.8893 22.7366 34.5882 23.1101 35.3491 23.2614C36.1099 23.4127 36.8986 23.3351 37.6153 23.0382C38.332 22.7414 38.9446 22.2388 39.3756 21.5939C39.8066 20.949 40.0366 20.1908 40.0366 19.4152C40.0355 18.3754 39.622 17.3786 38.8866 16.6434C38.1512 15.9082 37.1542 15.4947 36.1143 15.4936Z" fill="white"/>
<path d="M36.1143 21.897C35.6233 21.897 35.1434 21.7515 34.7352 21.4787C34.3269 21.206 34.0088 20.8184 33.8209 20.3649C33.633 19.9114 33.5838 19.4124 33.6796 18.931C33.7754 18.4496 34.0118 18.0073 34.359 17.6602C34.7062 17.3131 35.1485 17.0768 35.63 16.981C36.1115 16.8852 36.6106 16.9344 37.0642 17.1222C37.5178 17.3101 37.9055 17.6282 38.1783 18.0363C38.451 18.4445 38.5966 18.9243 38.5966 19.4152C38.5959 20.0732 38.3341 20.704 37.8687 21.1693C37.4034 21.6346 36.7724 21.8963 36.1143 21.897ZM36.1143 18.3045C35.8946 18.3045 35.6798 18.3696 35.4971 18.4917C35.3144 18.6137 35.172 18.7872 35.0879 18.9901C35.0039 19.1931 34.9819 19.4164 35.0247 19.6318C35.0676 19.8473 35.1734 20.0452 35.3288 20.2005C35.4841 20.3558 35.6821 20.4616 35.8975 20.5045C36.113 20.5473 36.3364 20.5253 36.5394 20.4413C36.7424 20.3572 36.9159 20.2149 37.0379 20.0322C37.16 19.8496 37.2252 19.6348 37.2252 19.4152C37.2246 19.1208 37.1074 18.8387 36.8991 18.6307C36.6909 18.4226 36.4087 18.3056 36.1143 18.3052V18.3045Z" fill="white"/>
<path d="M11.8847 21.897C11.3938 21.897 10.9138 21.7515 10.5056 21.4787C10.0974 21.206 9.77922 20.8184 9.59134 20.3649C9.40346 19.9114 9.3543 19.4124 9.45008 18.931C9.54586 18.4496 9.78228 18.0073 10.1294 17.6602C10.4766 17.3131 10.9189 17.0768 11.4004 16.981C11.882 16.8852 12.3811 16.9344 12.8347 17.1222C13.2883 17.3101 13.6759 17.6282 13.9487 18.0363C14.2215 18.4445 14.3671 18.9243 14.3671 19.4152C14.3663 20.0732 14.1046 20.704 13.6392 21.1693C13.1738 21.6346 12.5429 21.8963 11.8847 21.897ZM11.8847 18.3045C11.665 18.3045 11.4502 18.3696 11.2676 18.4917C11.0849 18.6137 10.9425 18.7872 10.8584 18.9901C10.7743 19.1931 10.7523 19.4164 10.7952 19.6318C10.8381 19.8473 10.9439 20.0452 11.0992 20.2005C11.2546 20.3558 11.4525 20.4616 11.668 20.5045C11.8835 20.5473 12.1069 20.5253 12.3098 20.4413C12.5128 20.3572 12.6863 20.2149 12.8084 20.0322C12.9305 19.8496 12.9956 19.6348 12.9956 19.4152C12.9951 19.1208 12.8778 18.8387 12.6696 18.6307C12.4614 18.4226 12.1791 18.3056 11.8847 18.3052V18.3045Z" fill="white"/>
<path d="M11.8847 24.7086C10.8377 24.7086 9.81426 24.3982 8.94371 23.8167C8.07316 23.2351 7.39463 22.4085 6.99393 21.4415C6.59324 20.4744 6.48836 19.4102 6.69257 18.3835C6.89678 17.3569 7.4009 16.4138 8.14118 15.6735C8.88147 14.9333 9.82467 14.4292 10.8515 14.2249C11.8784 14.0206 12.9428 14.1253 13.9101 14.5258C14.8774 14.9263 15.7043 15.6045 16.286 16.4748C16.8678 17.3451 17.1784 18.3684 17.1786 19.4152C17.1771 20.8185 16.6189 22.164 15.6265 23.1564C14.634 24.1487 13.2884 24.707 11.8847 24.7086ZM11.8847 15.4936C11.109 15.4936 10.3506 15.7236 9.70557 16.1545C9.06054 16.5854 8.55781 17.1979 8.26093 17.9144C7.96406 18.631 7.88638 19.4195 8.03772 20.1802C8.18907 20.9409 8.56264 21.6397 9.11119 22.1881C9.65975 22.7366 10.3586 23.1101 11.1195 23.2614C11.8804 23.4127 12.669 23.3351 13.3858 23.0382C14.1025 22.7414 14.7151 22.2388 15.1461 21.5939C15.5771 20.949 15.8071 20.1908 15.8071 19.4152C15.806 18.3754 15.3924 17.3786 14.6571 16.6434C13.9217 15.9082 12.9247 15.4947 11.8847 15.4936Z" fill="white"/>
<path d="M18.9731 9.37536C18.7912 9.37536 18.6168 9.30313 18.4882 9.17455C18.3596 9.04598 18.2874 8.8716 18.2874 8.68976V1.17225C18.2874 0.990417 18.3596 0.816034 18.4882 0.687461C18.6168 0.558887 18.7912 0.486655 18.9731 0.486655C19.155 0.486655 19.3294 0.558887 19.458 0.687461C19.5866 0.816034 19.6588 0.990417 19.6588 1.17225V8.68976C19.6588 8.8716 19.5866 9.04598 19.458 9.17455C19.3294 9.30313 19.155 9.37536 18.9731 9.37536Z" fill="white"/>
<path d="M24.6852 14.6544H22.628C22.4462 14.6544 22.2718 14.5822 22.1432 14.4536C22.0146 14.325 21.9423 14.1507 21.9423 13.9688C21.9423 13.787 22.0146 13.6126 22.1432 13.484C22.2718 13.3555 22.4462 13.2832 22.628 13.2832H24.6852C24.8671 13.2832 25.0415 13.3555 25.1701 13.484C25.2987 13.6126 25.371 13.787 25.371 13.9688C25.371 14.1507 25.2987 14.325 25.1701 14.4536C25.0415 14.5822 24.8671 14.6544 24.6852 14.6544Z" fill="white"/>
</svg>
