<svg width="48" height="42" viewBox="0 0 48 42" fill="none" xmlns="http://www.w3.org/2000/svg">
<path fill-rule="evenodd" clip-rule="evenodd" d="M11.1297 23.9438C10.3946 26.8442 10.0941 29.848 10.2469 32.8563H17.7216C18.1136 32.8569 18.4893 33.0128 18.7664 33.2899C19.0436 33.5669 19.1995 33.9426 19.2 34.3344V39.6051C19.1995 39.997 19.0436 40.3726 18.7664 40.6497C18.4893 40.9268 18.1136 41.0827 17.7216 41.0833H2.16617C1.77389 41.0833 1.39764 40.9276 1.12006 40.6505C0.842475 40.3733 0.686257 39.9974 0.685712 39.6051V33.5581C0.486337 25.3259 2.23795 20.5786 3.20557 18.606H2.43086C1.78644 18.6054 1.16856 18.3493 0.712827 17.8938C0.257089 17.4382 0.000726285 16.8206 0 16.1763V2.91792C0.000725973 2.27357 0.257067 1.65581 0.712785 1.20019C1.1685 0.744564 1.78638 0.488275 2.43086 0.487549H24.5239C24.6614 0.487549 24.7946 0.528819 24.907 0.604498L30.2133 3.84344H34.1747C34.2715 3.84351 34.3672 3.86407 34.4555 3.90378C34.5438 3.94348 34.6227 4.00142 34.6869 4.07379L37.0725 6.75508H45.247C45.3381 6.75509 45.4284 6.77329 45.5125 6.80861C45.5965 6.84392 45.6727 6.89565 45.7365 6.96075L47.804 9.06753C47.9296 9.19568 48 9.36798 48 9.54743C48 9.72688 47.9296 9.89918 47.804 10.0273L45.7372 12.1327C45.6733 12.1979 45.597 12.2497 45.5128 12.285C45.4286 12.3203 45.3383 12.3385 45.247 12.3384H37.0726L34.6869 15.0204C34.6226 15.0926 34.5437 15.1504 34.4554 15.19C34.3671 15.2296 34.2715 15.2501 34.1747 15.2501H30.219L24.8805 18.5086C24.7729 18.573 24.6496 18.6067 24.5242 18.606H17.9398L16.7397 23.4242C16.7026 23.5728 16.6168 23.7047 16.496 23.7989C16.3752 23.8931 16.2264 23.9441 16.0732 23.9438H11.1297ZM4.76182 18.606H11.5227C9.52089 23.0767 8.60962 27.9612 8.86666 32.8563H2.0454C1.95045 24.2194 4.11897 19.7412 4.76182 18.606ZM11.5119 22.5727H15.5383L16.5257 18.606H13.0334C12.4314 19.8947 11.9236 21.2205 11.5119 22.5727ZM17.3375 17.2348H12.6182C12.6068 17.2345 12.5953 17.2345 12.5839 17.2348H4.41474C4.38933 17.2334 4.36386 17.2334 4.33844 17.2348H2.43086C2.15006 17.2346 1.8808 17.1231 1.68217 16.9246C1.48355 16.7262 1.37179 16.457 1.37143 16.1763V2.91792C1.37179 2.63711 1.48353 2.3679 1.68213 2.16934C1.88074 1.97078 2.15 1.85906 2.43086 1.8587H4.51269V6.81885C4.51414 7.38206 4.73856 7.9218 5.1369 8.32005C5.53524 8.71831 6.07508 8.94269 6.63841 8.94413H16.9063C17.4707 8.94359 18.0119 8.71923 18.411 8.32029C18.8102 7.92134 19.0347 7.38039 19.0355 6.8161V1.8587H23.8382V17.2348H17.4707C17.4265 17.2305 17.3819 17.2305 17.3375 17.2348ZM17.7216 34.2275C17.75 34.2275 17.7772 34.2388 17.7973 34.2588C17.8173 34.2789 17.8286 34.3061 17.8286 34.3344V39.6051C17.8286 39.6192 17.8258 39.6331 17.8205 39.6461C17.8151 39.659 17.8072 39.6708 17.7973 39.6808C17.7873 39.6907 17.7755 39.6986 17.7626 39.704C17.7496 39.7093 17.7357 39.7121 17.7216 39.7121H2.16412C2.15007 39.7121 2.13616 39.7093 2.12318 39.704C2.1102 39.6986 2.09841 39.6907 2.08848 39.6808C2.07854 39.6708 2.07066 39.659 2.06529 39.6461C2.05991 39.6331 2.05714 39.6192 2.05714 39.6051V34.2275H17.7216ZM5.88138 1.8587V6.8161C5.88246 7.01578 5.96228 7.20697 6.1035 7.34816C6.24472 7.48936 6.43595 7.56916 6.63567 7.57024H16.9063C17.1066 7.57006 17.2987 7.49066 17.4407 7.34937C17.5827 7.20808 17.663 7.01637 17.664 6.8161V1.8587H5.88138ZM44.9596 8.12623H37.4504V10.9673H44.959L46.3544 9.54675L44.9596 8.12623ZM36.0789 7.70118L33.8668 5.21459H30.7125V13.8789H33.8668L36.0789 11.393V7.70118ZM29.3411 4.91431V14.1792L25.2097 16.6994V14.0976H26.4563C26.6382 14.0976 26.8126 14.0254 26.9412 13.8968C27.0698 13.7682 27.142 13.5939 27.142 13.412C27.142 13.2302 27.0698 13.0558 26.9412 12.9273C26.8126 12.7987 26.6382 12.7265 26.4563 12.7265H25.2097V10.2323H26.4563C26.6382 10.2323 26.8126 10.1601 26.9412 10.0315C27.0698 9.90295 27.142 9.72857 27.142 9.54674C27.142 9.36492 27.0698 9.19054 26.9412 9.06197C26.8126 8.9334 26.6382 8.86117 26.4563 8.86117H25.2097V6.36774H26.4563C26.6382 6.36774 26.8126 6.29551 26.9412 6.16694C27.0698 6.03837 27.142 5.86399 27.142 5.68216C27.142 5.50034 27.0698 5.32596 26.9412 5.19739C26.8126 5.06882 26.6382 4.99658 26.4563 4.99658H25.2097V2.39414L29.3411 4.91431Z" fill="white"/>
</svg>
