<svg width="48" height="49" viewBox="0 0 48 49" fill="none" xmlns="http://www.w3.org/2000/svg">
<path d="M24 48.4788C19.2533 48.4788 14.6131 47.0715 10.6663 44.4348C6.71954 41.7982 3.6434 38.0507 1.8269 33.6661C0.0103988 29.2816 -0.464881 24.4569 0.461164 19.8023C1.38721 15.1477 3.67299 10.8721 7.02945 7.51633C10.3859 4.16054 14.6623 1.87522 19.3178 0.949354C23.9734 0.0234923 28.799 0.498678 33.1844 2.31482C37.5698 4.13096 41.3181 7.20649 43.9553 11.1525C46.5924 15.0985 48 19.7377 48 24.4835C47.9927 30.8452 45.4618 36.9443 40.9625 41.4427C36.4632 45.9411 30.363 48.4715 24 48.4788ZM24 1.85945C19.5245 1.85945 15.1495 3.18633 11.4282 5.67229C7.707 8.15826 4.80664 11.6917 3.09394 15.8257C1.38123 19.9597 0.933112 24.5086 1.80624 28.8973C2.67937 33.2859 4.83453 37.3171 7.99919 40.4812C11.1639 43.6452 15.1959 45.7999 19.5854 46.6729C23.9749 47.5458 28.5248 47.0978 32.6596 45.3854C36.7944 43.6731 40.3285 40.7733 42.815 37.0528C45.3014 33.3323 46.6286 28.9581 46.6286 24.4835C46.6217 18.4854 44.2354 12.7348 39.9932 8.4935C35.751 4.25216 29.9994 1.86634 24 1.85945Z" fill="white"/>
<path d="M24 43.2944C20.2788 43.2944 16.6412 42.1912 13.5472 40.1242C10.4531 38.0573 8.04159 35.1194 6.61755 31.6822C5.19352 28.2449 4.82092 24.4627 5.54689 20.8137C6.27286 17.1648 8.06478 13.813 10.696 11.1822C13.3273 8.55148 16.6798 6.75992 20.3294 6.0341C23.9791 5.30827 27.7621 5.68079 31.2 7.10454C34.638 8.5283 37.5764 10.9393 39.6438 14.0328C41.7112 17.1262 42.8146 20.7631 42.8146 24.4835C42.809 29.4708 40.8249 34.2521 37.2977 37.7786C33.7705 41.3051 28.9882 43.2888 24 43.2944ZM24 7.04449C20.55 7.04449 17.1775 8.06733 14.309 9.98366C11.4405 11.9 9.20473 14.6238 7.88452 17.8105C6.56431 20.9972 6.21891 24.5038 6.89202 27.8868C7.56512 31.2698 9.22649 34.3773 11.666 36.8162C14.1056 39.2552 17.2137 40.9161 20.5974 41.5889C23.9811 42.2618 27.4884 41.9163 30.6757 40.5962C33.863 39.2762 36.5872 37.0408 38.5038 34.1727C40.4204 31.3047 41.4433 27.9328 41.4432 24.4835C41.4379 19.8599 39.5985 15.4272 36.3283 12.1578C33.0582 8.8885 28.6245 7.04957 24 7.04449Z" fill="white"/>
<path d="M22.8768 35.4528C22.8216 35.4529 22.7665 35.4462 22.7129 35.4329C22.5773 35.3995 22.4551 35.3255 22.3627 35.2207C22.2703 35.1159 22.2121 34.9855 22.1959 34.8467L21.4416 28.3858L16.5257 27.6845C16.4111 27.6682 16.3025 27.6231 16.21 27.5535C16.1175 27.4838 16.0442 27.3919 15.9968 27.2863C15.9495 27.1807 15.9296 27.0649 15.9391 26.9495C15.9486 26.8342 15.9872 26.7231 16.0512 26.6267L24.5486 13.8207C24.6294 13.6965 24.7484 13.6019 24.8876 13.551C25.0268 13.5 25.1788 13.4956 25.3208 13.5383C25.4627 13.581 25.587 13.6686 25.675 13.7878C25.763 13.9071 25.81 14.0517 25.8089 14.1999L25.8466 21.6672H31.3748C31.4996 21.6673 31.6219 21.7014 31.7287 21.7658C31.8355 21.8303 31.9226 21.9226 31.9808 22.0329C32.039 22.1432 32.066 22.2673 32.0589 22.3918C32.0518 22.5163 32.0109 22.6365 31.9406 22.7394L23.4432 35.1539C23.3802 35.246 23.2957 35.3214 23.197 35.3735C23.0983 35.4256 22.9884 35.4528 22.8768 35.4528ZM17.797 26.4806L22.1568 27.1038C22.3064 27.1253 22.4448 27.1956 22.5503 27.3039C22.6559 27.4121 22.7227 27.5522 22.7403 27.7023L23.3451 32.8688L30.0747 23.0349H25.1657C24.9844 23.0349 24.8105 22.9632 24.682 22.8353C24.5535 22.7075 24.4809 22.534 24.48 22.3528L24.4498 16.4568L17.797 26.4806Z" fill="white"/>
</svg>
