<svg width="48" height="49" viewBox="0 0 48 49" fill="none" xmlns="http://www.w3.org/2000/svg">
<path d="M42.4632 30.967C42.4452 30.967 42.428 30.9598 42.4152 30.9471C42.4025 30.9344 42.3953 30.9171 42.3953 30.8991V30.6937C42.3953 30.6757 42.4025 30.6584 42.4152 30.6457C42.428 30.6329 42.4452 30.6258 42.4632 30.6258C42.4812 30.6258 42.4985 30.6329 42.5112 30.6457C42.524 30.6584 42.5311 30.6757 42.5311 30.6937V30.8991C42.5311 30.9171 42.524 30.9344 42.5112 30.9471C42.4985 30.9598 42.4812 30.967 42.4632 30.967Z" fill="white"/>
<path d="M17.3897 31.8014H13.8727C13.7146 31.8015 13.5614 31.7469 13.4389 31.6469C13.3164 31.547 13.2323 31.4078 13.2007 31.253L12.624 28.3633C11.3946 28.0648 10.219 27.5772 9.13919 26.9181L6.68845 28.5552C6.55648 28.6434 6.39801 28.683 6.24008 28.6674C6.08215 28.6517 5.93453 28.5818 5.8224 28.4695L3.33531 25.9802C3.22301 25.8681 3.15308 25.7205 3.13745 25.5626C3.12182 25.4047 3.16146 25.2463 3.2496 25.1143L4.88708 22.6641C4.22779 21.5845 3.74015 20.4092 3.4416 19.18L0.548571 18.6034C0.393687 18.5718 0.254483 18.4877 0.154518 18.3653C0.0545531 18.2428 -3.22492e-05 18.0896 1.42942e-08 17.9316V14.4153C-3.22492e-05 14.2572 0.0545531 14.104 0.154518 13.9816C0.254483 13.8592 0.393687 13.775 0.548571 13.7434L3.43885 13.1668C3.73753 11.9377 4.22516 10.7624 4.88434 9.68275L3.2496 7.2325C3.16146 7.10055 3.12182 6.94212 3.13745 6.78423C3.15308 6.62633 3.22301 6.47874 3.33531 6.36662L5.82308 3.87936C5.93522 3.76708 6.08284 3.69717 6.24077 3.68154C6.3987 3.66591 6.55716 3.70554 6.68914 3.79366L9.13988 5.43081C10.2195 4.77208 11.3949 4.28478 12.624 3.98631L13.2007 1.09387C13.2323 0.939017 13.3164 0.799841 13.4389 0.699897C13.5614 0.599952 13.7146 0.545378 13.8727 0.54541H17.3897C17.5478 0.545378 17.701 0.599952 17.8235 0.699897C17.9459 0.799841 18.0301 0.939017 18.0617 1.09387L18.6384 3.98357C19.8678 4.28206 21.0434 4.7696 22.1232 5.42876L24.5739 3.79161C24.7059 3.70348 24.8644 3.66386 25.0223 3.67948C25.1802 3.69511 25.3278 3.76502 25.44 3.8773L27.9277 6.36457C28.0401 6.47668 28.11 6.62427 28.1256 6.78217C28.1412 6.94007 28.1016 7.0985 28.0135 7.23045L26.376 9.68069C27.0353 10.7603 27.5229 11.9356 27.8215 13.1648L30.7117 13.7413C30.8666 13.773 31.0058 13.8571 31.1058 13.9795C31.2058 14.102 31.2604 14.2552 31.2603 14.4132V17.9316C31.2604 18.0896 31.2058 18.2428 31.1058 18.3653C31.0058 18.4877 30.8666 18.5718 30.7117 18.6034L27.8215 19.18C27.5229 20.4092 27.0352 21.5845 26.376 22.6641L28.0135 25.1143C28.1016 25.2463 28.1412 25.4047 28.1256 25.5626C28.11 25.7205 28.0401 25.8681 27.9277 25.9802L25.44 28.4675C25.3278 28.5798 25.1802 28.6497 25.0223 28.6653C24.8644 28.6809 24.7059 28.6413 24.5739 28.5532L22.1232 26.916C21.0434 27.5751 19.8678 28.0627 18.6384 28.3612L18.0617 31.2509C18.0305 31.4061 17.9465 31.5458 17.824 31.6462C17.7015 31.7465 17.5481 31.8014 17.3897 31.8014ZM14.4356 30.4303H16.8274L17.3815 27.6551C17.4079 27.5228 17.4727 27.4013 17.5678 27.3057C17.663 27.2101 17.7842 27.1447 17.9163 27.1176C19.2868 26.8387 20.5906 26.2982 21.7563 25.5257C21.8688 25.451 22.0008 25.4111 22.1359 25.4111C22.2709 25.4111 22.4029 25.451 22.5154 25.5257L24.8695 27.0984L26.5618 25.4064L24.9888 23.0528C24.914 22.9404 24.8742 22.8084 24.8742 22.6734C24.8742 22.5383 24.914 22.4063 24.9888 22.2939C25.7615 21.1284 26.3021 19.8249 26.581 18.4547C26.6081 18.3226 26.6735 18.2014 26.7691 18.1062C26.8648 18.0111 26.9863 17.9463 27.1186 17.9199L29.8944 17.366V14.9781L27.1186 14.4242C26.9863 14.3978 26.8648 14.333 26.7691 14.2379C26.6735 14.1428 26.6081 14.0216 26.581 13.8894C26.3019 12.5193 25.7613 11.2158 24.9888 10.0502C24.914 9.93777 24.8742 9.80576 24.8742 9.67075C24.8742 9.53574 24.914 9.40373 24.9888 9.29128L26.5618 6.93771L24.8674 5.24708L22.5134 6.81979C22.4008 6.89466 22.2686 6.93461 22.1335 6.93461C21.9983 6.93461 21.8661 6.89466 21.7536 6.81979C20.588 6.04688 19.2841 5.50613 17.9136 5.2272C17.7814 5.20014 17.6602 5.13471 17.5651 5.0391C17.4699 4.9435 17.4051 4.82196 17.3787 4.68971L16.8274 1.91656H14.4356L13.8816 4.69176C13.8552 4.82402 13.7904 4.94555 13.6952 5.04116C13.6001 5.13676 13.4789 5.20219 13.3467 5.22925C11.9762 5.50834 10.6724 6.04908 9.50673 6.82184C9.39427 6.89657 9.26223 6.93644 9.12719 6.93644C8.99215 6.93644 8.86012 6.89657 8.74765 6.82184L6.39497 5.24708L4.70262 6.93908L6.27565 9.29265C6.3504 9.4051 6.39027 9.53711 6.39027 9.67212C6.39027 9.80713 6.3504 9.93914 6.27565 10.0516C5.50273 11.217 4.96188 12.5206 4.68274 13.8908C4.65567 14.0229 4.59023 14.1441 4.49461 14.2392C4.39898 14.3344 4.27742 14.3992 4.14514 14.4256L1.37143 14.9781V17.3694L4.1472 17.9234C4.27948 17.9497 4.40104 18.0145 4.49666 18.1097C4.59229 18.2048 4.65773 18.326 4.6848 18.4581C4.96379 19.8284 5.50465 21.132 6.27771 22.2973C6.3526 22.4098 6.39255 22.542 6.39255 22.6771C6.39255 22.8123 6.3526 22.9444 6.27771 23.0569L4.70262 25.4078L6.39428 27.0998L8.74834 25.5271C8.8608 25.4523 8.99284 25.4125 9.12788 25.4125C9.26292 25.4125 9.39495 25.4523 9.50742 25.5271C10.6732 26.2995 11.977 26.84 13.3474 27.119C13.4796 27.146 13.6008 27.2115 13.6959 27.3071C13.7911 27.4027 13.8559 27.5242 13.8823 27.6565L14.4356 30.4303Z" fill="white"/>
<path d="M15.6343 23.8906C14.1073 23.8913 12.6144 23.4391 11.3445 22.5914C10.0746 21.7436 9.08467 20.5384 8.5 19.128C7.91534 17.7177 7.76219 16.1657 8.05992 14.6683C8.35765 13.1709 9.09289 11.7955 10.1726 10.716C11.2524 9.63646 12.6281 8.90137 14.1258 8.60369C15.6234 8.30602 17.1758 8.45914 18.5864 9.04369C19.997 9.62823 21.2025 10.6179 22.0505 11.8876C22.8984 13.1573 23.3506 14.6498 23.3499 16.1765C23.3467 18.2214 22.5327 20.1816 21.0865 21.6276C19.6402 23.0735 17.6796 23.8873 15.6343 23.8906ZM15.6343 9.82672C14.3788 9.82604 13.1514 10.1976 12.1071 10.8944C11.0629 11.5912 10.2488 12.5819 9.76769 13.7413C9.28663 14.9007 9.16023 16.1766 9.40449 17.4078C9.64876 18.639 10.2527 19.7702 11.14 20.6582C12.0272 21.5462 13.1579 22.1513 14.3891 22.3968C15.6203 22.6424 16.8967 22.5174 18.0568 22.0377C19.217 21.558 20.2088 20.7451 20.9068 19.7018C21.6049 18.6585 21.9778 17.4317 21.9785 16.1765C21.9772 14.4941 21.3086 12.8808 20.1193 11.6906C18.93 10.5004 17.317 9.83031 15.6343 9.8274V9.82672Z" fill="white"/>
<path d="M38.2731 48.5356C38.1565 48.5357 38.0417 48.506 37.9397 48.4494C37.8377 48.3928 37.7519 48.3111 37.6903 48.212L36.4985 46.2924C35.5425 46.4014 34.5757 46.37 33.6288 46.1992L32.3122 48.0352C32.2201 48.1637 32.0863 48.2565 31.9336 48.2977C31.7809 48.3389 31.6186 48.3261 31.4743 48.2614L28.9234 47.1048C28.7789 47.0394 28.6616 46.9258 28.5915 46.7835C28.5213 46.6413 28.5027 46.4791 28.5387 46.3246L29.0516 44.1253C28.2993 43.5258 27.6386 42.8195 27.0905 42.0288L24.8619 42.3963C24.7052 42.4223 24.5443 42.3931 24.4068 42.3137C24.2692 42.2343 24.1635 42.1096 24.1076 41.961L23.1216 39.3386C23.066 39.1903 23.0635 39.0273 23.1145 38.8773C23.1655 38.7273 23.2668 38.5997 23.4014 38.5159L25.3214 37.3244C25.2126 36.3686 25.244 35.402 25.4146 34.4553L23.5796 33.1383C23.4507 33.0459 23.3577 32.9116 23.3167 32.7583C23.2757 32.605 23.2891 32.4423 23.3547 32.2978L24.5115 29.7475C24.577 29.603 24.6906 29.4857 24.8329 29.4156C24.9752 29.3454 25.1374 29.3268 25.2919 29.3628L27.4916 29.8757C28.0912 29.1233 28.7977 28.4628 29.5885 27.9149L29.221 25.6868C29.195 25.5301 29.2242 25.3693 29.3036 25.2317C29.383 25.0942 29.5077 24.9885 29.6564 24.9327L32.28 23.9468C32.4283 23.8912 32.5914 23.8887 32.7414 23.9397C32.8914 23.9907 33.0191 24.092 33.1028 24.2265L34.2946 26.1461C35.2506 26.0373 36.2174 26.0687 37.1643 26.2394L38.4781 24.4034C38.5706 24.2745 38.7049 24.1816 38.8582 24.1405C39.0115 24.0995 39.1743 24.113 39.3188 24.1785L41.8697 25.3351C42.014 25.4006 42.1312 25.514 42.2014 25.6561C42.2715 25.7982 42.2902 25.9602 42.2544 26.1146L41.7421 28.3112C42.4946 28.9106 43.1553 29.617 43.7033 30.4077L45.9319 30.0402C46.0886 30.0142 46.2494 30.0434 46.387 30.1228C46.5246 30.2022 46.6303 30.3269 46.6861 30.4755L47.6722 33.0979C47.7278 33.2462 47.7303 33.4092 47.6793 33.5592C47.6283 33.7092 47.5269 33.8368 47.3924 33.9205L45.4724 35.1121C45.5815 36.0679 45.5501 37.0345 45.3792 37.9812L47.2141 39.2982C47.3431 39.3906 47.436 39.5249 47.477 39.6782C47.5181 39.8315 47.5046 39.9942 47.439 40.1387L46.2857 42.6918C46.2202 42.8362 46.1066 42.9535 45.9643 43.0237C45.822 43.0938 45.6598 43.1124 45.5053 43.0764L43.3056 42.5636C42.7059 43.3158 41.9994 43.9764 41.2087 44.5243L41.5762 46.7524C41.6022 46.9091 41.573 47.07 41.4936 47.2075C41.4142 47.345 41.2895 47.4508 41.1408 47.5066L38.5179 48.4924C38.4396 48.5216 38.3567 48.5363 38.2731 48.5356ZM36.8461 44.8685C36.9628 44.8684 37.0776 44.8981 37.1796 44.9547C37.2815 45.0113 37.3674 45.093 37.429 45.1921L38.5584 47.0095L40.128 46.4199L39.7796 44.3084C39.7576 44.1751 39.7755 44.0382 39.831 43.915C39.8865 43.7918 39.9772 43.6878 40.0916 43.6159C41.0204 43.0344 41.8283 42.2793 42.4711 41.3919C42.5502 41.2828 42.6599 41.1994 42.7862 41.1522C42.9126 41.105 43.0501 41.0961 43.1814 41.1266L45.2653 41.612L45.9572 40.0859L44.2189 38.8382C44.1094 38.7595 44.0254 38.6503 43.9776 38.5243C43.9298 38.3982 43.9202 38.2608 43.9501 38.1293C44.1942 37.0614 44.2301 35.9564 44.0557 34.8749C44.0343 34.7415 44.0527 34.6047 44.1087 34.4818C44.1647 34.3588 44.2558 34.2552 44.3705 34.1838L46.1883 33.0547L45.5986 31.4854L43.4866 31.8337C43.3533 31.8551 43.2166 31.837 43.0935 31.7816C42.9704 31.7261 42.8663 31.6358 42.794 31.5217C42.2124 30.5933 41.4571 29.7858 40.5696 29.1435C40.4604 29.0643 40.3769 28.9547 40.3297 28.8284C40.2825 28.702 40.2737 28.5646 40.3042 28.4332L40.7897 26.3491L39.2633 25.6573L38.0153 27.3953C37.9366 27.5048 37.8274 27.5887 37.7013 27.6365C37.5752 27.6843 37.4378 27.6939 37.3063 27.664C36.2387 27.4195 35.1339 27.3832 34.0525 27.557C33.9191 27.5793 33.7821 27.5612 33.6589 27.5051C33.5358 27.4491 33.4322 27.3576 33.3613 27.2424L32.2285 25.4263L30.6583 26.0166L31.0066 28.1281C31.0286 28.2614 31.0108 28.3983 30.9553 28.5215C30.8998 28.6447 30.8091 28.7487 30.6946 28.8206C29.7676 29.4023 28.9613 30.1572 28.32 31.0439C28.2407 31.1532 28.131 31.2367 28.0045 31.2839C27.878 31.3311 27.7404 31.3399 27.6089 31.3092L25.5243 30.8238L24.8324 32.3499L26.5707 33.5976C26.6803 33.6763 26.7642 33.7855 26.812 33.9116C26.8599 34.0376 26.8694 34.175 26.8395 34.3065C26.5957 35.3745 26.5599 36.4794 26.7339 37.5609C26.7553 37.6944 26.7368 37.8312 26.6807 37.9541C26.6246 38.0771 26.5333 38.1807 26.4185 38.252L24.6007 39.3811L25.1904 40.9504L27.3024 40.6022C27.4357 40.5801 27.5726 40.598 27.6958 40.6535C27.819 40.709 27.9231 40.7996 27.995 40.9141C28.5767 41.8426 29.332 42.6503 30.2194 43.293C30.3286 43.3722 30.412 43.4818 30.4592 43.6081C30.5064 43.7345 30.5153 43.8719 30.4848 44.0033L29.9993 46.0868L31.5257 46.7785L32.7737 45.0406C32.8524 44.9309 32.9617 44.8469 33.088 44.7991C33.2142 44.7513 33.3518 44.7418 33.4834 44.7718C34.5516 45.0156 35.6567 45.0515 36.7385 44.8774C36.7741 44.8715 36.8101 44.8685 36.8461 44.8685Z" fill="white"/>
<path d="M35.3917 42.5074C34.0333 42.5075 32.7113 42.068 31.6235 41.2546C30.5356 40.4411 29.7404 39.2975 29.3566 37.9946C28.9729 36.6918 29.0213 35.2997 29.4945 34.0267C29.9678 32.7536 30.8405 31.6679 31.9822 30.9319C33.1239 30.196 34.4732 29.8493 35.8284 29.9437C37.1836 30.0381 38.4717 30.5685 39.5003 31.4557C40.5289 32.3428 41.2426 33.5391 41.5347 34.8654C41.8268 36.1918 41.6816 37.5771 41.1209 38.8142C40.6207 39.9142 39.8146 40.8472 38.7988 41.502C37.7831 42.1568 36.6004 42.5058 35.3917 42.5074ZM35.402 31.3037C34.5184 31.3024 33.6507 31.5393 32.8904 31.9894C32.13 32.4395 31.5051 33.0862 31.0813 33.8614C30.6575 34.6367 30.4505 35.5118 30.4822 36.3947C30.5138 37.2776 30.7829 38.1356 31.2612 38.8785C31.7394 39.6214 32.4091 40.2217 33.1997 40.6162C33.9904 41.0107 34.8727 41.1849 35.754 41.1203C36.6353 41.0558 37.4829 40.755 38.2076 40.2495C38.9323 39.744 39.5074 39.0525 39.8722 38.2479C40.2116 37.4998 40.358 36.6787 40.2981 35.8594C40.2381 35.0402 39.9738 34.2491 39.5291 33.5583C39.0845 32.8676 38.4738 32.2994 37.7528 31.9055C37.0318 31.5116 36.2236 31.3047 35.402 31.3037Z" fill="white"/>
</svg>
