<svg width="24" height="18" viewBox="0 0 24 18" fill="none" xmlns="http://www.w3.org/2000/svg">
<path fill-rule="evenodd" clip-rule="evenodd" d="M1.6 0C1.17565 0 0.768687 0.168571 0.468629 0.468629C0.168571 0.768687 0 1.17565 0 1.6L0 16C0 16.4243 0.168571 16.8313 0.468629 17.1314C0.768687 17.4314 1.17565 17.6 1.6 17.6H22.4C22.8243 17.6 23.2313 17.4314 23.5314 17.1314C23.8314 16.8313 24 16.4243 24 16V1.6C24 1.17565 23.8314 0.768687 23.5314 0.468629C23.2313 0.168571 22.8243 0 22.4 0H1.6ZM1.6 1.6H22.4V3.08C22.2634 3.07983 22.1296 3.11869 22.0144 3.192L12 9.5472L1.9856 3.192C1.87036 3.11869 1.73658 3.07983 1.6 3.08V1.6ZM1.6 4.6528V16H22.4V4.6528L12.3856 11.008C12.2703 11.0811 12.1365 11.12 12 11.12C11.8635 11.12 11.7297 11.0811 11.6144 11.008L1.6 4.6528Z" fill="#E12126"/>
</svg>
