<svg width="18" height="25" viewBox="0 0 18 25" fill="none" xmlns="http://www.w3.org/2000/svg">
<path d="M8.68042 3.94629C7.84533 3.94629 7.02899 4.19392 6.33464 4.65787C5.64029 5.12182 5.09911 5.78125 4.77953 6.55278C4.45996 7.3243 4.37634 8.17326 4.53926 8.99231C4.70218 9.81135 5.10431 10.5637 5.69481 11.1542C6.28531 11.7447 7.03765 12.1468 7.85669 12.3097C8.67574 12.4727 9.5247 12.389 10.2962 12.0695C11.0677 11.7499 11.7272 11.2087 12.1911 10.5144C12.6551 9.82 12.9027 9.00367 12.9027 8.16858C12.9027 7.04876 12.4579 5.9748 11.666 5.18297C10.8742 4.39113 9.80024 3.94629 8.68042 3.94629ZM8.68042 10.9171C8.13681 10.9171 7.60541 10.7559 7.15341 10.4539C6.70142 10.1519 6.34913 9.72263 6.1411 9.2204C5.93307 8.71817 5.87864 8.16553 5.98469 7.63236C6.09074 7.0992 6.35252 6.60946 6.73691 6.22507C7.1213 5.84067 7.61104 5.5789 8.14421 5.47285C8.67737 5.3668 9.23001 5.42123 9.73224 5.62926C10.2345 5.83729 10.6637 6.18957 10.9657 6.64157C11.2678 7.09356 11.429 7.62497 11.429 8.16858C11.427 8.89626 11.1366 9.59347 10.6213 10.1073C10.1061 10.6212 9.4081 10.9098 8.68042 10.9098V10.9171Z" fill="#E12126"/>
<path d="M8.68038 0.468262C6.38516 0.470179 4.18396 1.38028 2.55755 2.99979C0.931137 4.6193 0.0116797 6.81661 0 9.1118C0 12.553 1.93061 15.4342 3.34541 17.5343L3.60332 17.9174C5.01095 19.9576 6.52102 21.9251 8.12773 23.8124L8.68775 24.4683L9.24778 23.8124C10.8543 21.9249 12.3643 19.9574 13.7722 17.9174L14.0301 17.5269C15.4375 15.4268 17.3681 12.553 17.3681 9.1118C17.3564 6.81533 16.436 4.61691 14.808 2.99719C13.18 1.37747 10.9769 0.468232 8.68038 0.468262ZM12.7995 16.6795L12.5342 17.07C11.2668 18.9712 9.58674 21.1007 8.68038 22.1545C7.81087 21.1007 6.09395 18.9712 4.82653 17.07L4.56862 16.6795C3.26435 14.7341 1.47375 12.074 1.47375 9.08232C1.47375 8.13593 1.66015 7.19881 2.02232 6.32447C2.38449 5.45012 2.91532 4.65566 3.58452 3.98647C4.25372 3.31727 5.04817 2.78643 5.92252 2.42426C6.79687 2.0621 7.73399 1.87569 8.68038 1.87569C9.62677 1.87569 10.5639 2.0621 11.4382 2.42426C12.3126 2.78643 13.107 3.31727 13.7762 3.98647C14.4454 4.65566 14.9763 5.45012 15.3384 6.32447C15.7006 7.19881 15.887 8.13593 15.887 9.08232C15.887 12.1035 14.1038 14.7636 12.7995 16.6795Z" fill="#E12126"/>
</svg>
