<svg width="42" height="42" viewBox="0 0 42 42" fill="none" xmlns="http://www.w3.org/2000/svg">
<path d="M39.1374 31.4374C40.9512 28.2974 41.9185 24.7233 41.9185 21.0001C41.9185 17.2768 40.9512 13.7026 39.1374 10.5626C40.4234 8.41004 41.288 6.53811 41.7076 4.99506C42.2277 3.08261 42.0532 1.67491 41.1891 0.810853C40.3251 -0.0532887 38.9174 -0.227774 37.0049 0.292401C35.4619 0.712003 33.59 1.57664 31.4374 2.8626C28.2974 1.04883 24.7233 0.0814926 20.9999 0.0814926C17.2766 0.0814926 13.7025 1.04891 10.5626 2.8626C8.41 1.57664 6.53807 0.712003 4.99502 0.292401C3.08257 -0.227692 1.67479 -0.0532066 0.810817 0.810853C-0.0533247 1.67491 -0.227728 3.08269 0.292365 4.99514C0.711967 6.53819 1.5766 8.41012 2.86256 10.5627C1.0488 13.7027 0.0814565 17.2768 0.0814565 21.0001C0.0814565 24.7233 1.04888 28.2975 2.86256 31.4374C1.5766 33.59 0.711967 35.4619 0.292365 37.005C-0.227728 38.9174 -0.0532426 40.3251 0.810817 41.1892C1.35093 41.7294 2.1035 42 3.05903 42C3.63203 42 4.27813 41.9026 4.9951 41.7077C6.53816 41.2881 8.41008 40.4235 10.5626 39.1375C13.7026 40.9513 17.2768 41.9186 21 41.9186C24.7235 41.9186 28.2979 40.9511 31.438 39.1372C33.59 40.4227 35.4622 41.2882 37.0049 41.7077C37.722 41.9027 38.3679 42 38.941 42C39.8964 42 40.6491 41.7293 41.1892 41.1892C42.0534 40.3251 42.2278 38.9173 41.7077 37.005C41.288 35.4619 40.4234 33.59 39.1374 31.4374ZM38.94 1.64456C39.4669 1.64456 39.8262 1.7681 40.0289 1.97097C40.6731 2.6151 40.5159 4.83476 38.145 9.00658C37.4499 8.01734 36.6642 7.08101 35.7916 6.20834C34.9188 5.33558 33.9824 4.54986 32.993 3.85463C35.8516 2.22995 37.7937 1.64456 38.94 1.64456ZM1.97094 1.97097C2.17381 1.76802 2.53278 1.64456 3.05985 1.64456C4.20619 1.64456 6.1485 2.23028 9.00671 3.85479C8.01739 4.54994 7.08097 5.33574 6.20822 6.20842C5.33563 7.08101 4.54991 8.01742 3.85476 9.00667C1.48398 4.83476 1.32681 2.6151 1.97094 1.97097ZM3.05993 40.3555C2.53303 40.3555 2.17381 40.2319 1.97102 40.0291C1.32689 39.385 1.48472 37.165 3.85517 32.9938C4.55024 33.9829 5.33587 34.9192 6.20838 35.7917C7.08114 36.6645 8.01755 37.4502 9.00696 38.1454C6.14833 39.7701 4.20627 40.3556 3.05993 40.3555ZM20.9999 40.278C10.37 40.278 1.72205 31.63 1.72205 21.0001C1.72205 10.3701 10.37 1.72216 20.9999 1.72216C31.6299 1.72216 40.2778 10.3701 40.2778 21.0001C40.2778 31.63 31.6299 40.278 20.9999 40.278ZM40.029 40.0291C39.385 40.6732 37.1649 40.515 32.9938 38.1448C33.9829 37.4498 34.9191 36.6642 35.7916 35.7917C36.6642 34.9191 37.4498 33.9829 38.1449 32.9937C40.5155 37.1651 40.6732 39.385 40.029 40.0291Z" fill="white"/>
<path d="M20.9961 21.2052C20.9971 21.2058 20.9981 21.2064 20.9991 21.207C21.0018 21.2084 21.0046 21.2098 21.0073 21.2113C21.0139 21.2006 21.0202 21.19 21.0269 21.1792C21.0272 21.1787 21.0274 21.1781 21.0278 21.1775C21.0174 21.1773 21.0072 21.177 20.9968 21.1768C20.9965 21.1862 20.9963 21.1956 20.9961 21.2052Z" fill="white"/>
<path d="M38.2238 21.309L38.2244 21.2731C38.2801 18.2783 37.5254 15.271 36.0724 12.6527C33.046 7.19953 27.2962 3.79735 21.0668 3.77372L21.0488 3.77348C21.0327 3.77315 21.0167 3.7729 21.0005 3.7729C17.9765 3.7729 15.0012 4.56814 12.3964 6.07272C9.82235 7.55949 7.66331 9.69868 6.15274 12.2593C4.59615 14.8978 3.77344 17.9203 3.77344 21C3.77344 21.0229 3.77377 21.0458 3.77418 21.0686L3.77467 21.103C3.79247 24.1314 4.60797 27.1061 6.13305 29.7053C7.60982 32.2222 9.7171 34.3391 12.2272 35.8273C14.812 37.3598 17.774 38.1887 20.7933 38.2245L20.8597 38.2255C20.9066 38.2262 20.9535 38.227 21.0005 38.227C23.9589 38.227 26.8784 37.4632 29.4434 36.0183C32.0169 34.5686 34.1893 32.468 35.7256 29.9436C37.3062 27.3467 38.17 24.361 38.2238 21.309ZM35.2488 14.6763C36.0993 16.5942 36.5573 18.6808 36.5855 20.7923C32.9232 22.6242 29.3497 23.1004 25.7685 22.2232C25.8432 21.9325 25.8907 21.6311 25.9108 21.3224C29.6758 20.2845 32.8014 18.0623 35.2465 14.678C35.2473 14.6772 35.2482 14.6772 35.2488 14.6763ZM34.3949 13.0269C32.1389 16.4462 29.2815 18.646 25.7405 19.6771C25.4084 18.4891 24.6414 17.4815 23.622 16.8372C24.5472 13.0728 24.1471 9.27145 22.4171 5.47879C27.3612 5.93072 31.8317 8.72937 34.3949 13.0269ZM24.2818 21C24.2818 22.8094 22.8098 24.2814 21.0005 24.2814C19.1912 24.2814 17.7192 22.8094 17.7192 21C17.7192 19.1907 19.1912 17.7187 21.0005 17.7187C22.8098 17.7187 24.2818 19.1907 24.2818 21ZM20.5675 5.41965C22.3846 9.01813 22.8873 12.6265 22.0783 16.1984C21.7594 16.1268 21.429 16.0864 21.0902 16.0803C20.0221 12.3688 17.7905 9.28663 14.417 6.87336C14.4158 6.87246 14.4155 6.87131 14.4143 6.87041C16.336 5.97477 18.4333 5.47879 20.5675 5.41965ZM12.7927 7.74768C16.2065 9.98473 18.4131 12.8173 19.4637 16.325C18.3661 16.6868 17.4385 17.4244 16.8334 18.3854C15.3942 17.9464 13.9655 17.7253 12.5496 17.7253C10.1509 17.7253 7.78874 18.355 5.47645 19.6141C5.91304 14.7611 8.62277 10.3368 12.7927 7.74768ZM6.86159 27.5645C5.98769 25.6816 5.4968 23.6311 5.42445 21.5424C8.94639 19.3558 12.5058 18.8103 16.2035 19.9019C16.1355 20.199 16.0944 20.506 16.083 20.8206C12.1357 21.7364 9.04902 23.9905 6.86569 27.5604C6.86446 27.5621 6.86282 27.5625 6.86159 27.5645ZM7.78094 29.2596C9.73769 25.6037 12.5475 23.3515 16.296 22.4477C16.6343 23.5449 17.3469 24.479 18.2837 25.1016C17.0322 28.9923 17.3772 32.8071 19.3246 36.4971C14.5644 35.9949 10.3479 33.3681 7.78094 29.2596ZM21.259 36.5843C19.12 33.0517 18.6287 29.4815 19.7842 25.7697C20.0478 25.837 20.32 25.8817 20.5985 25.9043C21.4769 29.9077 23.7126 33.0385 27.2828 35.2536C27.2866 35.2564 27.2892 35.2593 27.2935 35.262C25.3995 36.0971 23.3428 36.5497 21.259 36.5843ZM29.0202 34.3665C25.361 32.3901 23.1199 29.5517 22.2404 25.7637C23.4203 25.4564 24.4292 24.7212 25.0909 23.7344C28.8706 24.7181 32.6885 24.3577 36.4981 22.6494C35.9812 27.4732 33.2095 31.846 29.0202 34.3665Z" fill="white"/>
</svg>
