<svg width="44" height="49" viewBox="0 0 44 49" fill="none" xmlns="http://www.w3.org/2000/svg">
<path fill-rule="evenodd" clip-rule="evenodd" d="M39.5358 21.5071C41.1582 20.6582 42.4118 18.6997 42.8806 16.1635C42.8981 16.1077 42.9085 16.0495 42.9113 15.9901C43.2779 13.8211 43.0753 11.2466 42.0511 8.58924C41.986 8.42032 41.9187 8.25387 41.8492 8.08991C41.831 7.97486 41.7836 7.86619 41.7115 7.77433C39.2042 2.19172 34.207 -0.371708 31.0599 0.84052C30.9117 0.897697 30.7879 1.00457 30.7097 1.14288C30.6315 1.28118 30.6038 1.44234 30.6313 1.5988L32.0949 9.95255L6.78719 14.3198C6.65053 14.0549 6.45924 13.8189 6.22298 13.6286C5.79789 13.2864 5.25884 13.1179 4.71446 13.1572C4.17008 13.1965 3.66083 13.4406 3.28933 13.8404C2.98538 14.1675 2.79213 14.5789 2.73232 15.0165L0.906173 15.3328C0.816447 15.3482 0.730675 15.3813 0.653861 15.4301C0.577046 15.4789 0.510726 15.5426 0.458768 15.6173C0.406809 15.692 0.370253 15.7763 0.35123 15.8653C0.332207 15.9543 0.331099 16.0462 0.34797 16.1357L1.10916 20.1321C1.13902 20.2889 1.2227 20.4304 1.34576 20.5322C1.46883 20.6339 1.62355 20.6896 1.78325 20.6895C1.83259 20.6893 1.88177 20.684 1.93 20.6737L2.89033 20.4629C3.00225 20.7196 3.16434 20.9544 3.36997 21.1522C3.603 21.3764 3.88128 21.5429 4.18268 21.6429V38.3948H0.687432C0.593192 38.3945 0.499916 38.4137 0.413426 38.4512C0.326936 38.4886 0.249088 38.5434 0.18474 38.6122C0.120393 38.6811 0.0709274 38.7624 0.0394315 38.8512C0.00793557 38.94 -0.00491471 39.0344 0.00168236 39.1284L0.618857 47.8787C0.631026 48.0521 0.708612 48.2144 0.83592 48.3328C0.963228 48.4512 1.13075 48.5168 1.30461 48.5164H8.43228C8.60554 48.5159 8.77221 48.4499 8.89879 48.3316C9.02537 48.2133 9.10248 48.0515 9.1146 47.8787L9.73178 39.1284C9.73837 39.0344 9.72552 38.94 9.69403 38.8512C9.66253 38.7624 9.61307 38.6811 9.54872 38.6122C9.48437 38.5434 9.40652 38.4886 9.32003 38.4512C9.23354 38.4137 9.14027 38.3945 9.04603 38.3948H5.5542V21.643C5.87059 21.5385 6.16156 21.3612 6.40197 21.1216C6.80747 20.7175 7.03602 20.169 7.03748 19.5966V19.5509L16.4349 17.491V18.5635H14.9592C14.6083 18.5638 14.2719 18.7034 14.0238 18.9514C13.7757 19.1995 13.6361 19.5358 13.6357 19.8867V21.6541C13.6361 22.0049 13.7757 22.3413 14.0238 22.5893C14.2233 22.7888 14.4799 22.9181 14.7553 22.9613L11.5771 47.7437C11.5629 47.8343 11.567 47.9268 11.5892 48.0157C11.6113 48.1047 11.6511 48.1883 11.7061 48.2616C11.7612 48.3349 11.8304 48.3965 11.9096 48.4426C11.9888 48.4887 12.0765 48.5184 12.1675 48.5301C12.2584 48.5417 12.3508 48.535 12.4391 48.5104C12.5274 48.4857 12.6098 48.4436 12.6816 48.3865C12.7533 48.3294 12.8129 48.2586 12.8568 48.1781C12.9006 48.0976 12.9279 48.0091 12.937 47.9179L13.1493 46.2622C13.2169 46.2509 13.2827 46.2294 13.3443 46.1984L20.2923 42.7016L27.2403 46.1984C27.302 46.2293 27.3677 46.2507 27.4353 46.2621L27.6476 47.9179C27.6688 48.0831 27.7494 48.2349 27.8743 48.345C27.9992 48.4552 28.16 48.5161 28.3265 48.5164C28.3561 48.5166 28.3857 48.5148 28.415 48.5109C28.5043 48.4995 28.5905 48.4706 28.6687 48.4259C28.7469 48.3811 28.8155 48.3214 28.8705 48.2502C28.9256 48.1789 28.9661 48.0975 28.9897 48.0106C29.0134 47.9238 29.0196 47.8331 29.0082 47.7437L25.8294 22.9613C26.1047 22.9181 26.3613 22.7888 26.5608 22.5893C26.8089 22.3413 26.9485 22.0049 26.9489 21.6541V19.8867C26.9485 19.5358 26.8089 19.1995 26.5608 18.9514C26.3127 18.7034 25.9763 18.5638 25.6254 18.5635H24.1503V15.7999L33.4416 13.7633L34.642 15.6698C34.6512 15.6858 34.661 15.7014 34.6714 15.7165L38.1643 21.2643V41.8124C38.1643 41.9943 38.2366 42.1687 38.3652 42.2972C38.4938 42.4258 38.6682 42.498 38.8501 42.498C39.0319 42.498 39.2064 42.4258 39.335 42.2972C39.4636 42.1687 39.5358 41.9943 39.5358 41.8124V21.5071ZM4.93872 20.3845C4.91547 20.3821 4.89202 20.3809 4.86844 20.3809C4.84659 20.3809 4.82485 20.3819 4.80328 20.384C4.63348 20.3688 4.47214 20.299 4.34414 20.1839C4.19192 20.0469 4.09867 19.8563 4.08396 19.6521V15.3116C4.08258 15.2074 4.10208 15.104 4.14133 15.0074C4.18057 14.9109 4.23876 14.8232 4.31246 14.7495C4.38616 14.6758 4.47387 14.6177 4.57042 14.5784C4.66698 14.5392 4.77041 14.5197 4.87463 14.5211C5.06758 14.5207 5.2538 14.592 5.39721 14.7211C5.54062 14.8501 5.63102 15.0278 5.65089 15.2197C5.65641 15.2514 5.65917 15.2835 5.65912 15.3157L5.66598 19.5993C5.66492 19.8041 5.58459 20.0004 5.44185 20.1472C5.30805 20.2848 5.12916 20.3689 4.93872 20.3845ZM16.7698 16.0143L7.03589 18.148L7.03128 15.6686L32.3316 11.3033L32.4774 12.1352C32.4925 12.2229 32.5246 12.3067 32.572 12.382L32.6652 12.5301L23.4873 14.5418C23.4312 14.5401 23.375 14.5452 23.3199 14.5574L16.9753 15.9334C16.9024 15.9492 16.8331 15.9767 16.7698 16.0143ZM2.71247 16.4127V19.0992L2.325 19.1852L1.82577 16.5669L2.71247 16.4127ZM13.3551 44.6578L18.7672 41.934L14.0115 39.5406L13.3551 44.6578ZM21.8173 41.934L27.2295 44.6578L26.5731 39.5405L21.8173 41.934ZM26.3291 37.6383L25.6273 32.1664L21.5882 34.6838L26.3291 37.6383ZM20.2924 35.4915L25.3298 38.6313L20.2923 41.1665L15.2548 38.6313L20.2924 35.4915ZM20.292 33.876L24.5734 31.2075L20.2915 28.358L16.0098 31.2074L20.292 33.876ZM21.5296 27.5341L25.3601 30.0834L24.7576 25.3859L21.5296 27.5341ZM24.5629 23.8682L20.2922 26.7105L16.0217 23.8684L16.136 22.9774H24.4486L24.5629 23.8682ZM19.0541 27.5345L15.2246 30.0832L15.8269 25.3869L19.0541 27.5345ZM14.9574 32.1663L18.9961 34.6836L14.2555 37.6382L14.9574 32.1663ZM17.8064 17.1904V18.5619H22.7788V16.1005L17.8064 17.1904ZM17.0178 19.9254L14.9592 19.9347L15.0072 21.6541L15.2838 21.6529C15.3625 21.6223 15.4468 21.6062 15.5325 21.6062H25.0521C25.0699 21.6062 25.0876 21.6069 25.1053 21.6083L25.5774 21.6061V19.8867L23.6895 19.8952C23.6178 19.9201 23.5419 19.9331 23.4646 19.9331H17.1207C17.086 19.9331 17.0517 19.9305 17.0178 19.9254ZM39.1031 20.1856L36.5541 16.1357L41.3626 16.5701C40.9665 18.211 40.1917 19.5295 39.1031 20.1856ZM40.8465 9.28704L35.3798 14.2699L33.805 11.7677L33.5672 10.4106L33.5647 10.3948L33.5611 10.3755L33.294 8.85138L40.6901 8.88114C40.7176 8.94902 40.7445 9.01718 40.7708 9.08562C40.7966 9.1526 40.8219 9.21974 40.8465 9.28704ZM36.8497 14.7845L41.2858 10.7412C41.6535 12.2657 41.7463 13.811 41.5955 15.213L36.8497 14.7845ZM40.0395 7.5073L34.0402 7.48308L37.2704 3.98603C38.3221 4.92419 39.2895 6.13142 40.0395 7.5073ZM36.1885 3.1364C34.7938 2.1843 33.3348 1.72498 32.0879 1.96697L32.9139 6.68167L36.1885 3.1364ZM1.94372 47.1451H7.79248L8.31022 39.766H1.42941L1.94372 47.1451Z" fill="white"/>
</svg>
