<svg width="24" height="24" viewBox="0 0 24 24" fill="none" xmlns="http://www.w3.org/2000/svg">
<path d="M18.558 23.4686C18.3244 23.4679 18.0915 23.4423 17.8634 23.3921C13.5197 22.4936 9.51811 20.3869 6.31902 17.3144C3.18821 14.2351 1.01682 10.3145 0.0675746 6.02701C-0.0443532 5.49266 -0.0168817 4.93849 0.147346 4.41783C0.311574 3.89717 0.607031 3.42753 1.00529 3.0541L3.78371 0.379868C3.92563 0.245662 4.09424 0.14289 4.27856 0.0782584C4.46288 0.0136272 4.65876 -0.0114098 4.85341 0.00478142C5.05523 0.025837 5.25 0.0908523 5.424 0.195255C5.59801 0.299658 5.74703 0.440914 5.86058 0.609088L9.33361 5.74222C9.46385 5.9414 9.52672 6.17712 9.51297 6.41469C9.49921 6.65227 9.40956 6.87916 9.25721 7.06197L7.51375 9.14579C8.20811 10.6826 9.19146 12.0715 10.4103 13.237C11.6212 14.4448 13.0524 15.4092 14.6265 16.078L16.7867 14.3623C16.9682 14.2189 17.1889 14.1341 17.4197 14.1192C17.6505 14.1043 17.8803 14.16 18.0787 14.2789L23.323 17.6686C23.5029 17.7761 23.6563 17.9228 23.7714 18.098C23.8866 18.2731 23.9607 18.472 23.9881 18.6798C24.0155 18.8876 23.9955 19.0989 23.9296 19.2979C23.8638 19.4969 23.7537 19.6784 23.6078 19.8288L20.8988 22.51C20.5911 22.8162 20.2258 23.0585 19.8241 23.223C19.4224 23.3876 18.9921 23.471 18.558 23.4686ZM4.74227 1.3801L1.96385 4.05433C1.7398 4.2631 1.57396 4.52658 1.48261 4.81887C1.39127 5.11116 1.37758 5.4222 1.44289 5.72139C2.32554 9.74464 4.35448 13.4262 7.28453 16.3211C10.2951 19.2117 14.0608 21.1933 18.1482 22.0377C18.4575 22.1023 18.7781 22.0892 19.0812 21.9995C19.3843 21.9098 19.6603 21.7463 19.8847 21.5237L22.5936 18.8425L17.53 15.5709L15.21 17.4185C15.1212 17.4888 15.0165 17.5363 14.9051 17.5569C14.7937 17.5775 14.679 17.5705 14.5709 17.5366C12.6446 16.8269 10.8989 15.7002 9.45864 14.2372C7.96896 12.8461 6.81263 11.1365 6.07591 9.23609C6.04475 9.12104 6.04371 8.9999 6.07291 8.88433C6.1021 8.76877 6.16055 8.66266 6.24262 8.57621L8.11805 6.33264L4.74227 1.3801Z" fill="white"/>
</svg>
