<svg width="48" height="49" viewBox="0 0 48 49" fill="none" xmlns="http://www.w3.org/2000/svg">
<path fill-rule="evenodd" clip-rule="evenodd" d="M41.8274 0.545472H44.7999C45.6483 0.546434 46.4617 0.883816 47.0616 1.4836C47.6615 2.08339 47.999 2.89659 47.9999 3.74482V6.71677C48.006 8.92343 47.5742 11.1094 46.7296 13.1481C45.8849 15.1868 44.6443 17.0377 43.0793 18.5938L41.8911 19.7819C42.1435 19.7553 42.3971 19.7418 42.6509 19.7415H43.9999C44.2121 19.7415 44.4156 19.8258 44.5656 19.9758C44.7157 20.1258 44.7999 20.3292 44.7999 20.5414V21.8901C44.8025 22.8358 44.6175 23.7727 44.2555 24.6464C43.8935 25.5201 43.3618 26.3134 42.6911 26.9803L35.2726 34.3973L36.3946 44.0442C36.4085 44.164 36.3952 44.2855 36.3555 44.3994C36.3159 44.5133 36.251 44.6168 36.1656 44.7022L34.1656 46.7017C34.0156 46.8517 33.8121 46.936 33.6 46.936C33.3878 46.936 33.1843 46.8517 33.0343 46.7017L28 41.6684L26.9656 42.7026C26.8156 42.8525 26.6121 42.9368 26.4 42.9368H24C23.7878 42.9368 23.5843 42.8525 23.4343 42.7026L21.1751 40.4438C21.0596 40.5052 20.9308 40.5372 20.8 40.5373H16.8C16.5878 40.5373 16.3843 40.453 16.2343 40.3031L15.1425 39.2114C14.8776 41.7694 13.6737 44.1385 11.7635 45.8607C9.8532 47.5829 7.3722 48.5359 4.79999 48.5356H0.799999C0.587827 48.5356 0.384345 48.4514 0.234317 48.3014C0.0842882 48.1514 2.25823e-06 47.9479 4.54968e-08 47.7358V43.7366C-0.000240457 41.165 0.953025 38.6845 2.67556 36.7746C4.39809 34.8648 6.76759 33.6611 9.32611 33.3963L8.23432 32.3047C8.08428 32.1547 7.99999 31.9512 7.99999 31.7391V27.7399C8 27.6091 8.0321 27.4804 8.09347 27.3649L5.83432 25.1062C5.68428 24.9562 5.59999 24.7527 5.59999 24.5406V22.1411C5.59999 21.9289 5.68428 21.7255 5.83432 21.5754L6.86859 20.5414L1.83432 15.5081C1.76003 15.4339 1.7011 15.3457 1.66089 15.2486C1.62068 15.1516 1.59999 15.0476 1.59999 14.9425C1.59999 14.8375 1.62068 14.7335 1.66089 14.6364C1.7011 14.5394 1.76003 14.4512 1.83432 14.3769L3.83432 12.3773C3.91965 12.292 4.02317 12.2271 4.13712 12.1875C4.25108 12.1479 4.37253 12.1345 4.49238 12.1485L14.1413 13.2702L21.5598 5.85317C22.2268 5.18265 23.0203 4.65106 23.8941 4.28916C24.768 3.92726 25.7051 3.74225 26.6509 3.74482H28C28.2121 3.74482 28.4156 3.82909 28.5656 3.97909C28.7157 4.12908 28.8 4.33252 28.8 4.54465V5.8934C28.7997 6.1472 28.7862 6.40081 28.7596 6.65321L29.948 5.46507C31.5044 3.90048 33.3557 2.66007 35.3948 1.81562C37.4339 0.971168 39.6203 0.539457 41.8274 0.545472ZM24.5067 5.76789C23.827 6.04938 23.2099 6.46285 22.6911 6.98439L16.1683 13.5059L21.3079 14.1034L21.8343 13.5771L21.8343 13.5771L25.5598 9.85236C26.0814 9.33367 26.495 8.7167 26.7765 8.03714C27.0581 7.35758 27.202 6.62894 27.2 5.8934V5.34449H26.6509C25.9152 5.34249 25.1864 5.4864 24.5067 5.76789ZM19.865 15.546L4.69204 13.7821L3.5314 14.9425L12 23.4094L19.865 15.546ZM7.99998 21.6725L7.19999 22.4723V24.2093L9.19999 26.2088L10.8686 24.5406L7.99998 21.6725ZM8.33134 38.9376L9.59999 40.206L19.6686 30.1394L18.4 28.871L8.33134 38.9376ZM9.59999 31.4078L11.6 33.4073L13.2686 31.7391L9.59999 28.0712V31.4078ZM4.79999 46.936C6.70342 46.932 8.55491 46.3149 10.08 45.1763C11.1247 44.3888 11.9816 43.3794 12.589 42.2209C13.1964 41.0624 13.5391 39.7835 13.5925 38.4766L10.1657 41.9027C10.0156 42.0527 9.81215 42.137 9.59999 42.137C9.38783 42.137 9.18435 42.0527 9.03432 41.9027L6.63432 39.5032C6.56002 39.4289 6.50109 39.3408 6.46088 39.2437C6.42067 39.1467 6.39998 39.0427 6.39998 38.9376C6.39998 38.8326 6.42067 38.7286 6.46088 38.6315C6.50109 38.5345 6.56002 38.4463 6.63432 38.372L10.0611 34.9459C7.78763 35.0331 5.63631 35.9975 4.05871 37.6365C2.4811 39.2756 1.59988 41.4619 1.6 43.7366V46.936H4.79999ZM16.8 35.2698L15.1314 36.938L17.1314 38.9376H20.4686L16.8 35.2698ZM24.3313 41.3371H26.0686L26.8686 40.5373L24 37.6693L22.3314 39.3375L24.3313 41.3371ZM25.1314 36.5381L33.6 45.005L34.7606 43.8446L32.9963 28.6748L25.1314 36.5381ZM43.1999 21.3412H42.6509C41.9154 21.3392 41.1868 21.4831 40.5073 21.7644C39.8277 22.0458 39.2107 22.459 38.6919 22.9803L34.4393 27.2321L35.0369 32.3706L41.5598 25.8491C42.0814 25.3304 42.495 24.7134 42.7765 24.0339C43.058 23.3543 43.202 22.6257 43.1999 21.8901V21.3412ZM37.5606 21.8491L41.948 17.4626C42.5242 16.8864 43.0537 16.2654 43.5316 15.6055L32.9369 5.01289C32.2768 5.49072 31.6557 6.02018 31.0794 6.59628L10.7314 26.9401L14.4 30.6079L17.8343 27.1743C17.9844 27.0243 18.1878 26.9401 18.4 26.9401C18.6121 26.9401 18.8156 27.0243 18.9657 27.1743L21.3657 29.5738C21.4399 29.6481 21.4989 29.7363 21.5391 29.8333C21.5793 29.9304 21.6 30.0344 21.6 30.1394C21.6 30.2445 21.5793 30.3485 21.5391 30.4455C21.4989 30.5426 21.4399 30.6307 21.3657 30.705L17.9314 34.1386L21.6 37.8064L33.8343 25.5746L37.5598 21.8499L37.5606 21.8491ZM44.4193 14.2306C45.7234 11.9414 46.4062 9.35118 46.3999 6.71677V3.74482C46.3995 3.32071 46.2307 2.91411 45.9308 2.61421C45.6308 2.31432 45.2241 2.14563 44.7999 2.14514H41.8274C39.1924 2.13893 36.6017 2.82161 34.3121 4.12545L44.4193 14.2306ZM33.6 12.543C33.8121 12.543 34.0156 12.6272 34.1656 12.7772L35.7656 14.3768C35.9157 14.5269 36 14.7303 36 14.9424V19.7414C36 19.9536 35.9157 20.157 35.7656 20.307L34.9656 21.1068C34.8156 21.2568 34.6121 21.3411 34.4 21.3411C34.1878 21.3411 33.9843 21.2568 33.8343 21.1068L27.4343 14.7082C27.36 14.6339 27.3011 14.5458 27.2609 14.4487C27.2206 14.3517 27.2 14.2477 27.2 14.1426C27.2 14.0376 27.2206 13.9336 27.2609 13.8365C27.3011 13.7395 27.36 13.6513 27.4343 13.577L28.2343 12.7772C28.3843 12.6272 28.5878 12.543 28.8 12.543H33.6ZM29.1313 14.1426L34.4 19.4101V15.2737L33.2686 14.1426H29.1313Z" fill="white"/>
</svg>
