<svg width="48" height="40" viewBox="0 0 48 40" fill="none" xmlns="http://www.w3.org/2000/svg">
<path d="M11.8311 39.4658C5.29704 39.4658 0 34.1699 0 27.637C0 21.1041 5.29704 15.8082 11.8311 15.8082C18.3653 15.8082 23.6623 21.1042 23.6623 27.637V27.6391C23.6541 34.1681 18.3616 39.4586 11.8311 39.4658ZM11.8311 17.1806C6.05501 17.1806 1.37262 21.8621 1.37262 27.637C1.37262 33.4118 6.0551 38.0934 11.8311 38.0934C17.6064 38.0934 22.2886 33.4131 22.2897 27.639C22.2833 21.8667 17.6045 17.189 11.8311 17.1826V17.1806Z" fill="white"/>
<path d="M11.8311 34.594C7.99005 34.5952 4.87525 31.4828 4.8741 27.6425C4.87296 23.8022 7.98594 20.688 11.827 20.6869C15.6681 20.6857 18.7829 23.7981 18.7841 27.6384V27.6391C18.7803 31.4773 15.6701 34.5884 11.8311 34.594ZM11.8311 22.0585C8.74811 22.0573 6.24787 24.5552 6.24672 27.6376C6.24557 30.7201 8.744 33.2198 11.827 33.2209C14.9101 33.2221 17.4103 30.7242 17.4115 27.6418C17.4115 27.6408 17.4115 27.6399 17.4115 27.639C17.4077 24.5589 14.9118 22.0627 11.8311 22.0577V22.0585Z" fill="white"/>
<path d="M5.33875 19.272C5.31953 19.272 5.3003 19.272 5.28107 19.272C4.90338 19.2403 4.62279 18.9085 4.65445 18.5309L6.11088 1.11888C6.14101 0.741172 6.47183 0.459301 6.84961 0.489525C7.2274 0.519654 7.50933 0.850401 7.4791 1.22811C7.479 1.22993 7.47881 1.23174 7.47862 1.23347L6.01885 18.6435C5.989 18.9974 5.69396 19.2701 5.33875 19.272Z" fill="white"/>
<path d="M35.3309 32.5012H22.1607C21.7817 32.5012 21.4744 32.194 21.4744 31.815C21.4744 31.4361 21.7817 31.1289 22.1607 31.1289H35.3309C35.7099 31.1289 36.0172 31.4361 36.0172 31.815C36.0172 32.194 35.7099 32.5012 35.3309 32.5012Z" fill="white"/>
<path d="M47.3137 32.5012H44.1292C43.7502 32.5012 43.4429 32.194 43.4429 31.815C43.4429 31.4361 43.7502 31.1289 44.1292 31.1289H47.3137C47.6927 31.1289 48 31.4361 48 31.815C48 32.194 47.6927 32.5012 47.3137 32.5012Z" fill="white"/>
<path d="M39.7341 39.4658C36.6639 39.4658 34.1751 36.9775 34.1751 33.9079C34.1751 30.8383 36.6639 28.3499 39.7341 28.3499C42.8044 28.3499 45.2932 30.8383 45.2932 33.9079C45.288 36.9753 42.8022 39.4605 39.7341 39.4658ZM39.7341 29.7161C37.4221 29.7161 35.5477 31.5901 35.5477 33.9018C35.5477 36.2134 37.422 38.0874 39.7341 38.0874C42.0463 38.0874 43.9206 36.2134 43.9206 33.9018C43.9153 31.5926 42.0437 29.7224 39.7341 29.7183V29.7161Z" fill="white"/>
<path d="M39.7341 36.682C38.201 36.6824 36.9577 35.44 36.9573 33.9072C36.957 32.3744 38.1996 31.1313 39.7327 31.131C41.266 31.1306 42.5091 32.3729 42.5095 33.9058V33.9079C42.5073 35.4394 41.266 36.6801 39.7341 36.682ZM39.7341 32.504C38.9591 32.5036 38.3303 33.1315 38.33 33.9065C38.3296 34.6815 38.9576 35.3101 39.7328 35.3104C40.5079 35.3108 41.1366 34.6829 41.137 33.908C41.1366 33.1332 40.509 32.5051 39.7341 32.504Z" fill="white"/>
<path d="M40.1562 21.3614H36.21C35.831 21.3614 35.5237 21.0542 35.5237 20.6752C35.5237 20.2963 35.831 19.9891 36.21 19.9891H40.1562C40.5353 19.9891 40.8425 20.2963 40.8425 20.6752C40.8425 21.0542 40.5353 21.3614 40.1562 21.3614Z" fill="white"/>
<path d="M40.1562 24.1472H36.21C35.831 24.1472 35.5237 23.84 35.5237 23.461C35.5237 23.0821 35.831 22.7749 36.21 22.7749H40.1562C40.5353 22.7749 40.8425 23.0821 40.8425 23.461C40.8425 23.84 40.5353 24.1472 40.1562 24.1472Z" fill="white"/>
<path d="M47.3137 32.504C46.9347 32.504 46.6274 32.1968 46.6274 31.8178V20.6718C46.6236 18.7455 45.0607 17.186 43.1341 17.186H28.3786C28.0582 17.1859 27.7804 16.964 27.7095 16.6516L24.3576 1.86407H6.79441C6.41538 1.86407 6.1081 1.55685 6.1081 1.1779C6.1081 0.798943 6.41538 0.491725 6.79441 0.491725H24.906C25.2264 0.49182 25.5043 0.713721 25.5751 1.0262L28.927 15.8137H43.1335C45.8177 15.8148 47.9945 17.988 47.9993 20.6717V31.8177C47.9993 32.1965 47.6925 32.5036 47.3137 32.504Z" fill="white"/>
<path d="M38.7418 10.5989C38.3628 10.5989 38.0555 10.2917 38.0555 9.91275V7.95036C38.0563 6.91441 37.218 6.07329 36.1819 6.07023C35.8028 6.07023 35.4956 5.76302 35.4956 5.38406C35.4956 5.00511 35.8028 4.69789 36.1819 4.69789C37.9756 4.7021 39.4277 6.15689 39.4281 7.95027V9.91265C39.4281 10.2917 39.1208 10.5989 38.7418 10.5989Z" fill="white"/>
<path d="M27.8515 1.86407H4.11786C3.73883 1.86407 3.43155 1.55685 3.43155 1.1779C3.43155 0.798943 3.73883 0.491725 4.11786 0.491725H27.8516C28.2306 0.491725 28.5379 0.798943 28.5379 1.1779C28.5379 1.55685 28.2306 1.86407 27.8515 1.86407Z" fill="white"/>
<path d="M40.4081 17.1827H37.0775C36.6985 17.1827 36.3912 16.8755 36.3912 16.4965V9.90931C36.3912 9.53036 36.6985 9.22314 37.0775 9.22314H40.4088C40.7878 9.22314 41.0951 9.53036 41.0951 9.90931V16.4965C41.0951 16.8755 40.7878 17.1827 40.4088 17.1827C40.4086 17.1827 40.4084 17.1827 40.4081 17.1827ZM37.7631 15.8103H39.7218V10.5955H37.7638L37.7631 15.8103Z" fill="white"/>
<path d="M27.3012 12.4309H14.3918C14.0127 12.4309 13.7054 12.1237 13.7054 11.7448V1.1779C13.7054 0.798943 14.0127 0.491725 14.3918 0.491725C14.7708 0.491725 15.0781 0.798943 15.0781 1.1779V11.0587H27.3012C27.6802 11.0587 27.9875 11.3659 27.9875 11.7449C27.9875 12.1237 27.6802 12.4309 27.3012 12.4309Z" fill="white"/>
</svg>
