<svg width="48" height="26" viewBox="0 0 48 26" fill="none" xmlns="http://www.w3.org/2000/svg">
<path d="M34.8974 18.0553C34.6635 18.0553 34.4256 18.0518 34.1842 18.047L0.935998 18.047C0.754136 18.047 0.579722 17.9748 0.451125 17.8462C0.322529 17.7177 0.250284 17.5433 0.250284 17.3615L0.250284 0.740401C0.250284 0.558576 0.322529 0.384198 0.451125 0.255628C0.579722 0.127058 0.754136 0.0548267 0.935998 0.0548267L34.1931 0.0548267C34.2451 0.0549074 34.2968 0.0608881 34.3474 0.0726524C34.752 0.16589 44.2786 2.43651 47.208 9.4897C47.6337 10.4845 47.7745 11.578 47.6146 12.6481C47.5611 13.1187 47.4151 13.5741 47.1851 13.9881C46.955 14.4021 46.6454 14.7666 46.2741 15.0607C46.1527 15.1628 42.5691 18.0546 34.8974 18.0553ZM1.62171 16.6766L34.2117 16.6766C34.4427 16.6821 34.6711 16.6841 34.8974 16.6841C42.085 16.6841 45.4025 14.0104 45.4361 13.9802C45.6708 13.7905 45.8651 13.5556 46.0074 13.2895C46.1497 13.0233 46.2371 12.7313 46.2645 12.4308C46.3843 11.6119 46.2736 10.7758 45.9449 10.0162C43.4139 3.9201 34.9824 1.64605 34.1143 1.42666L1.62171 1.42666L1.62171 16.6766Z" fill="white"/>
<path d="M46.6498 10.6723L34.1959 10.6723C34.014 10.6723 33.8396 10.6001 33.711 10.4715C33.5824 10.3429 33.5102 10.1686 33.5102 9.98674V0.736966C33.5102 0.55514 33.5824 0.380761 33.711 0.252191C33.8396 0.123621 34.014 0.0513916 34.1959 0.0513916C34.3777 0.0513916 34.5522 0.123621 34.6808 0.252191C34.8093 0.380761 34.8816 0.55514 34.8816 0.736966V9.30116L46.6498 9.30116C46.8317 9.30116 47.0061 9.37339 47.1347 9.50196C47.2633 9.63053 47.3355 9.80491 47.3355 9.98674C47.3355 10.1686 47.2633 10.3429 47.1347 10.4715C47.0061 10.6001 46.8317 10.6723 46.6498 10.6723Z" fill="white"/>
<path d="M14.0297 18.0477C13.8478 18.0477 13.6734 17.9755 13.5448 17.8469C13.4162 17.7184 13.344 17.544 13.344 17.3622L13.344 0.740401C13.344 0.558576 13.4162 0.384198 13.5448 0.255628C13.6734 0.127058 13.8478 0.0548267 14.0297 0.0548267C14.2116 0.0548267 14.386 0.127058 14.5146 0.255628C14.6432 0.384198 14.7154 0.558576 14.7154 0.740401L14.7154 17.3622C14.7154 17.544 14.6432 17.7184 14.5146 17.8469C14.386 17.9755 14.2116 18.0477 14.0297 18.0477Z" fill="white"/>
<path d="M10.2761 8.94946L4.60596 8.94946C4.4241 8.94946 4.24969 8.87723 4.12109 8.74866C3.99249 8.62009 3.92025 8.44571 3.92025 8.26389L3.92025 4.78939C3.92025 4.60757 3.99249 4.43319 4.12109 4.30462C4.24969 4.17605 4.4241 4.10382 4.60596 4.10382L10.2761 4.10382C10.458 4.10382 10.6324 4.17605 10.761 4.30462C10.8896 4.43319 10.9618 4.60757 10.9618 4.78939L10.9618 8.26389C10.9618 8.44571 10.8896 8.62009 10.761 8.74866C10.6324 8.87723 10.458 8.94946 10.2761 8.94946ZM5.29168 7.57831L9.59042 7.57831L9.59042 5.47497L5.29168 5.47497V7.57831Z" fill="white"/>
<path d="M23.0921 8.94946H17.4206C17.2387 8.94946 17.0643 8.87723 16.9357 8.74866C16.8071 8.62009 16.7349 8.44571 16.7349 8.26389V4.78939C16.7349 4.60757 16.8071 4.43319 16.9357 4.30462C17.0643 4.17605 17.2387 4.10382 17.4206 4.10382L23.0921 4.10382C23.274 4.10382 23.4484 4.17605 23.577 4.30462C23.7056 4.43319 23.7778 4.60757 23.7778 4.78939V8.26389C23.7778 8.44571 23.7056 8.62009 23.577 8.74866C23.4484 8.87723 23.274 8.94946 23.0921 8.94946ZM18.1063 7.57831L22.4064 7.57831V5.47497L18.1063 5.47497V7.57831Z" fill="white"/>
<path d="M46.3749 14.6747L0.934644 14.6747C0.752781 14.6747 0.578367 14.6025 0.44977 14.4739C0.321174 14.3453 0.248929 14.1709 0.248929 13.9891C0.248929 13.8073 0.321174 13.6329 0.44977 13.5043C0.578367 13.3758 0.752781 13.3035 0.934644 13.3035L46.3749 13.3035C46.5567 13.3035 46.7311 13.3758 46.8597 13.5043C46.9883 13.6329 47.0606 13.8073 47.0606 13.9891C47.0606 14.1709 46.9883 14.3453 46.8597 14.4739C46.7311 14.6025 46.5567 14.6747 46.3749 14.6747Z" fill="white"/>
<path d="M30.672 14.6747L26.4837 14.6747C26.3018 14.6747 26.1274 14.6025 25.9988 14.4739C25.8702 14.3453 25.798 14.1709 25.798 13.9891L25.798 5.98161C25.798 5.79978 25.8702 5.6254 25.9988 5.49683C26.1274 5.36826 26.3018 5.29603 26.4837 5.29603L30.672 5.29603C30.8539 5.29603 31.0283 5.36826 31.1569 5.49683C31.2855 5.6254 31.3577 5.79978 31.3577 5.98161L31.3577 13.9891C31.3577 14.1709 31.2855 14.3453 31.1569 14.4739C31.0283 14.6025 30.8539 14.6747 30.672 14.6747ZM27.1694 13.3035L29.9863 13.3035L29.9863 6.66718H27.1694L27.1694 13.3035Z" fill="white"/>
<path d="M31.3762 20.5295C30.6757 20.5288 30.004 20.2503 29.5086 19.7551C29.0131 19.2599 28.7344 18.5884 28.7335 17.888V17.3622C28.7335 17.1803 28.8057 17.006 28.9343 16.8774C29.0629 16.7488 29.2373 16.6766 29.4192 16.6766C29.601 16.6766 29.7755 16.7488 29.9041 16.8774C30.0327 17.006 30.1049 17.1803 30.1049 17.3622V17.8901C30.1126 18.222 30.2499 18.5377 30.4874 18.7697C30.7249 19.0017 31.0438 19.1316 31.3759 19.1316C31.7079 19.1316 32.0268 19.0017 32.2643 18.7697C32.5018 18.5377 32.6391 18.222 32.6468 17.8901V17.3622C32.6468 17.1803 32.7191 17.006 32.8477 16.8774C32.9763 16.7488 33.1507 16.6766 33.3326 16.6766C33.5144 16.6766 33.6888 16.7488 33.8174 16.8774C33.946 17.006 34.0183 17.1803 34.0183 17.3622V17.8901C34.017 18.5901 33.7382 19.261 33.2429 19.7558C32.7476 20.2505 32.0764 20.5288 31.3762 20.5295Z" fill="white"/>
<path d="M19.6958 20.5295C18.9953 20.5288 18.3237 20.2503 17.8284 19.755C17.3331 19.2598 17.0545 18.5884 17.0537 17.888V17.3622C17.0537 17.1803 17.126 17.006 17.2546 16.8774C17.3832 16.7488 17.5576 16.6766 17.7394 16.6766C17.9213 16.6766 18.0957 16.7488 18.2243 16.8774C18.3529 17.006 18.4252 17.1803 18.4252 17.3622V17.8901C18.4252 18.227 18.559 18.5501 18.7973 18.7883C19.0356 19.0266 19.3588 19.1604 19.6958 19.1604C20.0328 19.1604 20.356 19.0266 20.5943 18.7883C20.8326 18.5501 20.9664 18.227 20.9664 17.8901V17.3622C20.9664 17.1803 21.0387 17.006 21.1673 16.8774C21.2959 16.7488 21.4703 16.6766 21.6521 16.6766C21.834 16.6766 22.0084 16.7488 22.137 16.8774C22.2656 17.006 22.3379 17.1803 22.3379 17.3622V17.8901C22.3366 18.5901 22.0577 19.261 21.5625 19.7558C21.0672 20.2505 20.3959 20.5288 19.6958 20.5295Z" fill="white"/>
<path d="M8.01736 20.5295C7.31687 20.5288 6.64527 20.2503 6.14995 19.755C5.65462 19.2598 5.37603 18.5884 5.3753 17.888V17.3622C5.3753 17.1803 5.44755 17.006 5.57615 16.8774C5.70474 16.7488 5.87916 16.6766 6.06102 16.6766C6.24288 16.6766 6.41729 16.7488 6.54589 16.8774C6.67449 17.006 6.74673 17.1803 6.74673 17.3622V17.8901C6.74673 18.227 6.8806 18.5501 7.11889 18.7883C7.35718 19.0266 7.68037 19.1604 8.01736 19.1604C8.35435 19.1604 8.67754 19.0266 8.91583 18.7883C9.15412 18.5501 9.28799 18.227 9.28799 17.8901V17.3622C9.28799 17.1803 9.36023 17.006 9.48883 16.8774C9.61743 16.7488 9.79184 16.6766 9.9737 16.6766C10.1556 16.6766 10.33 16.7488 10.4586 16.8774C10.5872 17.006 10.6594 17.1803 10.6594 17.3622V17.8901C10.6581 18.5901 10.3793 19.261 9.88405 19.7558C9.38879 20.2505 8.7175 20.5288 8.01736 20.5295Z" fill="white"/>
<path d="M47.3143 23.0682L0.685714 23.0682C0.503852 23.0682 0.329437 22.996 0.200841 22.8674C0.0722446 22.7388 0 22.5645 0 22.3826C0 22.2008 0.0722446 22.0264 0.200841 21.8979C0.329437 21.7693 0.503852 21.6971 0.685714 21.6971L47.3143 21.6971C47.4961 21.6971 47.6706 21.7693 47.7992 21.8979C47.9278 22.0264 48 22.2008 48 22.3826C48 22.5645 47.9278 22.7388 47.7992 22.8674C47.6706 22.996 47.4961 23.0682 47.3143 23.0682Z" fill="white"/>
<path d="M39.0638 25.1434C38.8819 25.1434 38.7075 25.0712 38.5789 24.9426C38.4503 24.8141 38.3781 24.6397 38.3781 24.4579V22.3826C38.3781 22.2008 38.4503 22.0264 38.5789 21.8979C38.7075 21.7693 38.8819 21.6971 39.0638 21.6971C39.2457 21.6971 39.4201 21.7693 39.5487 21.8979C39.6773 22.0264 39.7495 22.2008 39.7495 22.3826V24.4579C39.7495 24.6397 39.6773 24.8141 39.5487 24.9426C39.4201 25.0712 39.2457 25.1434 39.0638 25.1434Z" fill="white"/>
<path d="M34.0471 25.1434C33.8652 25.1434 33.6908 25.0712 33.5622 24.9426C33.4336 24.8141 33.3614 24.6397 33.3614 24.4579V22.3826C33.3614 22.2008 33.4336 22.0264 33.5622 21.8979C33.6908 21.7693 33.8652 21.6971 34.0471 21.6971C34.2289 21.6971 34.4034 21.7693 34.5319 21.8979C34.6605 22.0264 34.7328 22.2008 34.7328 22.3826V24.4579C34.7328 24.6397 34.6605 24.8141 34.5319 24.9426C34.4034 25.0712 34.2289 25.1434 34.0471 25.1434Z" fill="white"/>
<path d="M29.0311 25.1434C28.8492 25.1434 28.6748 25.0712 28.5462 24.9426C28.4176 24.8141 28.3454 24.6397 28.3454 24.4579V22.3826C28.3454 22.2008 28.4176 22.0264 28.5462 21.8979C28.6748 21.7693 28.8492 21.6971 29.0311 21.6971C29.2129 21.6971 29.3874 21.7693 29.516 21.8979C29.6446 22.0264 29.7168 22.2008 29.7168 22.3826V24.4579C29.7168 24.6397 29.6446 24.8141 29.516 24.9426C29.3874 25.0712 29.2129 25.1434 29.0311 25.1434Z" fill="white"/>
<path d="M24.0144 25.1434C23.8325 25.1434 23.6581 25.0712 23.5295 24.9426C23.4009 24.8141 23.3287 24.6397 23.3287 24.4579V22.3826C23.3287 22.2008 23.4009 22.0264 23.5295 21.8979C23.6581 21.7693 23.8325 21.6971 24.0144 21.6971C24.1963 21.6971 24.3707 21.7693 24.4993 21.8979C24.6279 22.0264 24.7001 22.2008 24.7001 22.3826V24.4579C24.7001 24.6397 24.6279 24.8141 24.4993 24.9426C24.3707 25.0712 24.1963 25.1434 24.0144 25.1434Z" fill="white"/>
<path d="M18.9977 25.1434C18.8159 25.1434 18.6415 25.0712 18.5129 24.9426C18.3843 24.8141 18.312 24.6397 18.312 24.4579V22.3826C18.312 22.2008 18.3843 22.0264 18.5129 21.8979C18.6415 21.7693 18.8159 21.6971 18.9977 21.6971C19.1796 21.6971 19.354 21.7693 19.4826 21.8979C19.6112 22.0264 19.6835 22.2008 19.6835 22.3826V24.4579C19.6835 24.6397 19.6112 24.8141 19.4826 24.9426C19.354 25.0712 19.1796 25.1434 18.9977 25.1434Z" fill="white"/>
<path d="M13.9831 25.1434C13.8012 25.1434 13.6268 25.0712 13.4982 24.9426C13.3696 24.8141 13.2974 24.6397 13.2974 24.4579V22.3826C13.2974 22.2008 13.3696 22.0264 13.4982 21.8979C13.6268 21.7693 13.8012 21.6971 13.9831 21.6971C14.165 21.6971 14.3394 21.7693 14.468 21.8979C14.5966 22.0264 14.6688 22.2008 14.6688 22.3826V24.4579C14.6688 24.6397 14.5966 24.8141 14.468 24.9426C14.3394 25.0712 14.165 25.1434 13.9831 25.1434Z" fill="white"/>
<path d="M8.96435 25.1434C8.78249 25.1434 8.60808 25.0712 8.47948 24.9426C8.35088 24.8141 8.27864 24.6397 8.27864 24.4579V22.3826C8.27864 22.2008 8.35088 22.0264 8.47948 21.8979C8.60808 21.7693 8.78249 21.6971 8.96435 21.6971C9.14622 21.6971 9.32063 21.7693 9.44923 21.8979C9.57782 22.0264 9.65007 22.2008 9.65007 22.3826V24.4579C9.65007 24.6397 9.57782 24.8141 9.44923 24.9426C9.32063 25.0712 9.14622 25.1434 8.96435 25.1434Z" fill="white"/>
<path d="M3.94768 25.1434C3.76582 25.1434 3.59141 25.0712 3.46281 24.9426C3.33421 24.8141 3.26197 24.6397 3.26197 24.4579L3.26197 22.3826C3.26197 22.2008 3.33421 22.0264 3.46281 21.8979C3.59141 21.7693 3.76582 21.6971 3.94768 21.6971C4.12955 21.6971 4.30396 21.7693 4.43256 21.8979C4.56115 22.0264 4.6334 22.2008 4.6334 22.3826V24.4579C4.6334 24.6397 4.56115 24.8141 4.43256 24.9426C4.30396 25.0712 4.12955 25.1434 3.94768 25.1434Z" fill="white"/>
</svg>
