<svg width="48" height="26" viewBox="0 0 48 26" fill="none" xmlns="http://www.w3.org/2000/svg">
<path d="M34.8974 18.3247C34.6635 18.3247 34.4256 18.3213 34.1842 18.3165L0.935998 18.3165C0.754136 18.3165 0.579722 18.2442 0.451125 18.1157C0.322529 17.9871 0.250284 17.8127 0.250284 17.6309L0.250284 1.00981C0.250284 0.827985 0.322529 0.653607 0.451125 0.525037C0.579722 0.396467 0.754136 0.324236 0.935998 0.324236L34.1931 0.324236C34.2451 0.324317 34.2968 0.330297 34.3474 0.342062C34.752 0.4353 44.2786 2.70592 47.208 9.75911C47.6337 10.7539 47.7745 11.8474 47.6146 12.9176C47.5611 13.3881 47.4151 13.8435 47.1851 14.2575C46.955 14.6715 46.6454 15.036 46.2741 15.3301C46.1527 15.4322 42.5691 18.324 34.8974 18.3247ZM1.62171 16.946L34.2117 16.946C34.4427 16.9515 34.6711 16.9535 34.8974 16.9535C42.085 16.9535 45.4025 14.2798 45.4361 14.2496C45.6708 14.0599 45.8651 13.825 46.0074 13.5589C46.1497 13.2927 46.2371 13.0008 46.2645 12.7002C46.3843 11.8813 46.2736 11.0452 45.9449 10.2856C43.4139 4.18951 34.9824 1.91546 34.1143 1.69607L1.62171 1.69607L1.62171 16.946Z" fill="#888888"/>
<path d="M46.6498 10.9417L34.1959 10.9417C34.014 10.9417 33.8396 10.8695 33.711 10.7409C33.5824 10.6124 33.5102 10.438 33.5102 10.2561V1.00638C33.5102 0.82455 33.5824 0.650171 33.711 0.5216C33.8396 0.39303 34.014 0.320801 34.1959 0.320801C34.3777 0.320801 34.5522 0.39303 34.6808 0.5216C34.8093 0.650171 34.8816 0.82455 34.8816 1.00638V9.57057L46.6498 9.57057C46.8317 9.57057 47.0061 9.6428 47.1347 9.77137C47.2633 9.89994 47.3355 10.0743 47.3355 10.2561C47.3355 10.438 47.2633 10.6124 47.1347 10.7409C47.0061 10.8695 46.8317 10.9417 46.6498 10.9417Z" fill="#888888"/>
<path d="M14.0297 18.3171C13.8478 18.3171 13.6734 18.2449 13.5448 18.1163C13.4162 17.9878 13.344 17.8134 13.344 17.6316L13.344 1.00981C13.344 0.827985 13.4162 0.653607 13.5448 0.525037C13.6734 0.396467 13.8478 0.324236 14.0297 0.324236C14.2116 0.324236 14.386 0.396467 14.5146 0.525037C14.6432 0.653607 14.7154 0.827985 14.7154 1.00981L14.7154 17.6316C14.7154 17.8134 14.6432 17.9878 14.5146 18.1163C14.386 18.2449 14.2116 18.3171 14.0297 18.3171Z" fill="#888888"/>
<path d="M10.2761 9.21887L4.60596 9.21887C4.4241 9.21887 4.24969 9.14664 4.12109 9.01807C3.99249 8.8895 3.92025 8.71512 3.92025 8.5333L3.92025 5.0588C3.92025 4.87698 3.99249 4.7026 4.12109 4.57403C4.24969 4.44546 4.4241 4.37323 4.60596 4.37323L10.2761 4.37323C10.458 4.37323 10.6324 4.44546 10.761 4.57403C10.8896 4.7026 10.9618 4.87698 10.9618 5.0588L10.9618 8.5333C10.9618 8.71512 10.8896 8.8895 10.761 9.01807C10.6324 9.14664 10.458 9.21887 10.2761 9.21887ZM5.29168 7.84772L9.59042 7.84772L9.59042 5.74438L5.29168 5.74438V7.84772Z" fill="#888888"/>
<path d="M23.0921 9.21887H17.4206C17.2387 9.21887 17.0643 9.14664 16.9357 9.01807C16.8071 8.8895 16.7349 8.71512 16.7349 8.5333V5.0588C16.7349 4.87698 16.8071 4.7026 16.9357 4.57403C17.0643 4.44546 17.2387 4.37323 17.4206 4.37323L23.0921 4.37323C23.274 4.37323 23.4484 4.44546 23.577 4.57403C23.7056 4.7026 23.7778 4.87698 23.7778 5.0588V8.5333C23.7778 8.71512 23.7056 8.8895 23.577 9.01807C23.4484 9.14664 23.274 9.21887 23.0921 9.21887ZM18.1063 7.84772L22.4064 7.84772V5.74438L18.1063 5.74438V7.84772Z" fill="#888888"/>
<path d="M46.3749 14.9441L0.934644 14.9441C0.752781 14.9441 0.578367 14.8719 0.44977 14.7433C0.321174 14.6147 0.248929 14.4404 0.248929 14.2585C0.248929 14.0767 0.321174 13.9023 0.44977 13.7738C0.578367 13.6452 0.752781 13.573 0.934644 13.573L46.3749 13.573C46.5567 13.573 46.7311 13.6452 46.8597 13.7738C46.9883 13.9023 47.0606 14.0767 47.0606 14.2585C47.0606 14.4404 46.9883 14.6147 46.8597 14.7433C46.7311 14.8719 46.5567 14.9441 46.3749 14.9441Z" fill="#888888"/>
<path d="M30.672 14.9441L26.4837 14.9441C26.3018 14.9441 26.1274 14.8719 25.9988 14.7433C25.8702 14.6147 25.798 14.4404 25.798 14.2585L25.798 6.25102C25.798 6.06919 25.8702 5.89481 25.9988 5.76624C26.1274 5.63767 26.3018 5.56544 26.4837 5.56544L30.672 5.56544C30.8539 5.56544 31.0283 5.63767 31.1569 5.76624C31.2855 5.89481 31.3577 6.06919 31.3577 6.25102L31.3577 14.2585C31.3577 14.4404 31.2855 14.6147 31.1569 14.7433C31.0283 14.8719 30.8539 14.9441 30.672 14.9441ZM27.1694 13.573L29.9863 13.573L29.9863 6.93659H27.1694L27.1694 13.573Z" fill="#888888"/>
<path d="M31.3762 20.7989C30.6757 20.7982 30.004 20.5197 29.5086 20.0245C29.0131 19.5293 28.7344 18.8578 28.7335 18.1574V17.6316C28.7335 17.4497 28.8057 17.2754 28.9343 17.1468C29.0629 17.0182 29.2373 16.946 29.4192 16.946C29.601 16.946 29.7755 17.0182 29.9041 17.1468C30.0327 17.2754 30.1049 17.4497 30.1049 17.6316V18.1595C30.1126 18.4914 30.2499 18.8071 30.4874 19.0391C30.7249 19.2711 31.0438 19.401 31.3759 19.401C31.7079 19.401 32.0268 19.2711 32.2643 19.0391C32.5018 18.8071 32.6391 18.4914 32.6468 18.1595V17.6316C32.6468 17.4497 32.7191 17.2754 32.8477 17.1468C32.9763 17.0182 33.1507 16.946 33.3326 16.946C33.5144 16.946 33.6888 17.0182 33.8174 17.1468C33.946 17.2754 34.0183 17.4497 34.0183 17.6316V18.1595C34.017 18.8595 33.7382 19.5304 33.2429 20.0252C32.7476 20.52 32.0764 20.7982 31.3762 20.7989Z" fill="#888888"/>
<path d="M19.6958 20.7989C18.9953 20.7982 18.3237 20.5197 17.8284 20.0244C17.3331 19.5292 17.0545 18.8578 17.0537 18.1574V17.6316C17.0537 17.4497 17.126 17.2754 17.2546 17.1468C17.3832 17.0182 17.5576 16.946 17.7394 16.946C17.9213 16.946 18.0957 17.0182 18.2243 17.1468C18.3529 17.2754 18.4252 17.4497 18.4252 17.6316V18.1595C18.4252 18.4964 18.559 18.8195 18.7973 19.0578C19.0356 19.296 19.3588 19.4298 19.6958 19.4298C20.0328 19.4298 20.356 19.296 20.5943 19.0578C20.8326 18.8195 20.9664 18.4964 20.9664 18.1595V17.6316C20.9664 17.4497 21.0387 17.2754 21.1673 17.1468C21.2959 17.0182 21.4703 16.946 21.6521 16.946C21.834 16.946 22.0084 17.0182 22.137 17.1468C22.2656 17.2754 22.3379 17.4497 22.3379 17.6316V18.1595C22.3366 18.8595 22.0577 19.5304 21.5625 20.0252C21.0672 20.52 20.3959 20.7982 19.6958 20.7989Z" fill="#888888"/>
<path d="M8.01736 20.7989C7.31687 20.7982 6.64527 20.5197 6.14995 20.0244C5.65462 19.5292 5.37603 18.8578 5.3753 18.1574V17.6316C5.3753 17.4497 5.44755 17.2754 5.57615 17.1468C5.70474 17.0182 5.87916 16.946 6.06102 16.946C6.24288 16.946 6.41729 17.0182 6.54589 17.1468C6.67449 17.2754 6.74673 17.4497 6.74673 17.6316V18.1595C6.74673 18.4964 6.8806 18.8195 7.11889 19.0578C7.35718 19.296 7.68037 19.4298 8.01736 19.4298C8.35435 19.4298 8.67754 19.296 8.91583 19.0578C9.15412 18.8195 9.28799 18.4964 9.28799 18.1595V17.6316C9.28799 17.4497 9.36023 17.2754 9.48883 17.1468C9.61743 17.0182 9.79184 16.946 9.9737 16.946C10.1556 16.946 10.33 17.0182 10.4586 17.1468C10.5872 17.2754 10.6594 17.4497 10.6594 17.6316V18.1595C10.6581 18.8595 10.3793 19.5304 9.88405 20.0252C9.38879 20.52 8.7175 20.7982 8.01736 20.7989Z" fill="#888888"/>
<path d="M47.3143 23.3376L0.685714 23.3376C0.503852 23.3376 0.329437 23.2654 0.200841 23.1368C0.0722446 23.0082 0 22.8339 0 22.652C0 22.4702 0.0722446 22.2958 0.200841 22.1673C0.329437 22.0387 0.503852 21.9665 0.685714 21.9665L47.3143 21.9665C47.4961 21.9665 47.6706 22.0387 47.7992 22.1673C47.9278 22.2958 48 22.4702 48 22.652C48 22.8339 47.9278 23.0082 47.7992 23.1368C47.6706 23.2654 47.4961 23.3376 47.3143 23.3376Z" fill="#888888"/>
<path d="M39.0638 25.4128C38.8819 25.4128 38.7075 25.3406 38.5789 25.212C38.4503 25.0835 38.3781 24.9091 38.3781 24.7273V22.652C38.3781 22.4702 38.4503 22.2958 38.5789 22.1673C38.7075 22.0387 38.8819 21.9665 39.0638 21.9665C39.2457 21.9665 39.4201 22.0387 39.5487 22.1673C39.6773 22.2958 39.7495 22.4702 39.7495 22.652V24.7273C39.7495 24.9091 39.6773 25.0835 39.5487 25.212C39.4201 25.3406 39.2457 25.4128 39.0638 25.4128Z" fill="#888888"/>
<path d="M34.0471 25.4128C33.8652 25.4128 33.6908 25.3406 33.5622 25.212C33.4336 25.0835 33.3614 24.9091 33.3614 24.7273V22.652C33.3614 22.4702 33.4336 22.2958 33.5622 22.1673C33.6908 22.0387 33.8652 21.9665 34.0471 21.9665C34.2289 21.9665 34.4034 22.0387 34.5319 22.1673C34.6605 22.2958 34.7328 22.4702 34.7328 22.652V24.7273C34.7328 24.9091 34.6605 25.0835 34.5319 25.212C34.4034 25.3406 34.2289 25.4128 34.0471 25.4128Z" fill="#888888"/>
<path d="M29.0311 25.4128C28.8492 25.4128 28.6748 25.3406 28.5462 25.212C28.4176 25.0835 28.3454 24.9091 28.3454 24.7273V22.652C28.3454 22.4702 28.4176 22.2958 28.5462 22.1673C28.6748 22.0387 28.8492 21.9665 29.0311 21.9665C29.2129 21.9665 29.3874 22.0387 29.516 22.1673C29.6446 22.2958 29.7168 22.4702 29.7168 22.652V24.7273C29.7168 24.9091 29.6446 25.0835 29.516 25.212C29.3874 25.3406 29.2129 25.4128 29.0311 25.4128Z" fill="#888888"/>
<path d="M24.0144 25.4128C23.8325 25.4128 23.6581 25.3406 23.5295 25.212C23.4009 25.0835 23.3287 24.9091 23.3287 24.7273V22.652C23.3287 22.4702 23.4009 22.2958 23.5295 22.1673C23.6581 22.0387 23.8325 21.9665 24.0144 21.9665C24.1963 21.9665 24.3707 22.0387 24.4993 22.1673C24.6279 22.2958 24.7001 22.4702 24.7001 22.652V24.7273C24.7001 24.9091 24.6279 25.0835 24.4993 25.212C24.3707 25.3406 24.1963 25.4128 24.0144 25.4128Z" fill="#888888"/>
<path d="M18.9977 25.4128C18.8159 25.4128 18.6415 25.3406 18.5129 25.212C18.3843 25.0835 18.312 24.9091 18.312 24.7273V22.652C18.312 22.4702 18.3843 22.2958 18.5129 22.1673C18.6415 22.0387 18.8159 21.9665 18.9977 21.9665C19.1796 21.9665 19.354 22.0387 19.4826 22.1673C19.6112 22.2958 19.6835 22.4702 19.6835 22.652V24.7273C19.6835 24.9091 19.6112 25.0835 19.4826 25.212C19.354 25.3406 19.1796 25.4128 18.9977 25.4128Z" fill="#888888"/>
<path d="M13.9831 25.4128C13.8012 25.4128 13.6268 25.3406 13.4982 25.212C13.3696 25.0835 13.2974 24.9091 13.2974 24.7273V22.652C13.2974 22.4702 13.3696 22.2958 13.4982 22.1673C13.6268 22.0387 13.8012 21.9665 13.9831 21.9665C14.165 21.9665 14.3394 22.0387 14.468 22.1673C14.5966 22.2958 14.6688 22.4702 14.6688 22.652V24.7273C14.6688 24.9091 14.5966 25.0835 14.468 25.212C14.3394 25.3406 14.165 25.4128 13.9831 25.4128Z" fill="#888888"/>
<path d="M8.96435 25.4128C8.78249 25.4128 8.60808 25.3406 8.47948 25.212C8.35088 25.0835 8.27864 24.9091 8.27864 24.7273V22.652C8.27864 22.4702 8.35088 22.2958 8.47948 22.1673C8.60808 22.0387 8.78249 21.9665 8.96435 21.9665C9.14622 21.9665 9.32063 22.0387 9.44923 22.1673C9.57782 22.2958 9.65007 22.4702 9.65007 22.652V24.7273C9.65007 24.9091 9.57782 25.0835 9.44923 25.212C9.32063 25.3406 9.14622 25.4128 8.96435 25.4128Z" fill="#888888"/>
<path d="M3.94768 25.4128C3.76582 25.4128 3.59141 25.3406 3.46281 25.212C3.33421 25.0835 3.26197 24.9091 3.26197 24.7273L3.26197 22.652C3.26197 22.4702 3.33421 22.2958 3.46281 22.1673C3.59141 22.0387 3.76582 21.9665 3.94768 21.9665C4.12955 21.9665 4.30396 22.0387 4.43256 22.1673C4.56115 22.2958 4.6334 22.4702 4.6334 22.652V24.7273C4.6334 24.9091 4.56115 25.0835 4.43256 25.212C4.30396 25.3406 4.12955 25.4128 3.94768 25.4128Z" fill="#888888"/>
</svg>
