<svg width="48" height="35" viewBox="0 0 48 35" fill="none" xmlns="http://www.w3.org/2000/svg">
<path d="M31.5429 29.1165H15.0446C14.8627 29.1165 14.6883 29.0442 14.5597 28.9157C14.4311 28.7871 14.3589 28.6127 14.3589 28.4309C14.3589 28.2491 14.4311 28.0747 14.5597 27.9461C14.6883 27.8175 14.8627 27.7453 15.0446 27.7453H30.8571L30.8571 1.69342L1.37143 1.69342L1.37143 27.7453H5.55429C5.73615 27.7453 5.91056 27.8175 6.03916 27.9461C6.16776 28.0747 6.24 28.2491 6.24 28.4309C6.24 28.6127 6.16776 28.7871 6.03916 28.9157C5.91056 29.0442 5.73615 29.1165 5.55429 29.1165H1.37143C1.0077 29.1165 0.658875 28.972 0.401682 28.7149C0.144489 28.4577 0 28.109 0 27.7453L0 1.69342C0 1.32977 0.144489 0.981008 0.401682 0.723867C0.658875 0.466726 1.0077 0.322266 1.37143 0.322266L30.8571 0.322266C31.2209 0.322266 31.5697 0.466726 31.8269 0.723867C32.0841 0.981008 32.2286 1.32977 32.2286 1.69342L32.2286 28.4309C32.2286 28.6127 32.1563 28.7871 32.0277 28.9157C31.8991 29.0442 31.7247 29.1165 31.5429 29.1165Z" fill="#888888"/>
<path d="M47.3143 29.1165H44.5166C44.3347 29.1165 44.1603 29.0442 44.0317 28.9157C43.9031 28.7871 43.8309 28.6127 43.8309 28.4309C43.8309 28.2491 43.9031 28.0747 44.0317 27.9461C44.1603 27.8175 44.3347 27.7453 44.5166 27.7453H46.6286L46.6286 15.2431L40.6629 7.8636L32.2286 7.8636L32.2286 27.7453L35.0263 27.7453C35.2081 27.7453 35.3826 27.8175 35.5112 27.9461C35.6398 28.0747 35.712 28.2491 35.712 28.4309C35.712 28.6127 35.6398 28.7871 35.5112 28.9157C35.3826 29.0442 35.2081 29.1165 35.0263 29.1165L31.5429 29.1165C31.361 29.1165 31.1866 29.0442 31.058 28.9157C30.9294 28.7871 30.8571 28.6127 30.8571 28.4309L30.8571 7.17803C30.8571 6.9962 30.9294 6.82182 31.058 6.69325C31.1866 6.56468 31.361 6.49245 31.5429 6.49245L40.992 6.49245C41.0943 6.49247 41.1953 6.51539 41.2877 6.55952C41.38 6.60365 41.4612 6.66787 41.5255 6.74749L47.8478 14.5699C47.9462 14.6918 48 14.8438 48 15.0005L48 28.4309C48 28.6127 47.9278 28.7871 47.7992 28.9157C47.6706 29.0442 47.4961 29.1165 47.3143 29.1165Z" fill="#888888"/>
<path d="M43.5428 18.8328H34.6286C34.4467 18.8328 34.2723 18.7606 34.1437 18.632C34.0151 18.5034 33.9428 18.3291 33.9428 18.1472V10.6059C33.9428 10.4241 34.0151 10.2497 34.1437 10.1211C34.2723 9.99255 34.4467 9.92032 34.6286 9.92032L39.0116 9.92032C39.114 9.92034 39.215 9.94326 39.3073 9.98739C39.3996 10.0315 39.4809 10.0957 39.5451 10.1754L44.0763 15.7813C44.1749 15.9034 44.2287 16.0556 44.2286 16.2125V18.1472C44.2286 18.3291 44.1563 18.5034 44.0277 18.632C43.8991 18.7606 43.7247 18.8328 43.5428 18.8328ZM35.3143 17.4617H42.8571V16.4545L38.6846 11.2915L35.3143 11.2915V17.4617Z" fill="#888888"/>
<path d="M10.3001 34.6011C9.21514 34.6011 8.15453 34.2794 7.25241 33.6768C6.35029 33.0741 5.64717 32.2175 5.23197 31.2153C4.81677 30.2132 4.70813 29.1104 4.9198 28.0465C5.13147 26.9826 5.65393 26.0053 6.42112 25.2383C7.18831 24.4712 8.16577 23.9489 9.2299 23.7372C10.294 23.5256 11.397 23.6342 12.3994 24.0493C13.4018 24.4645 14.2585 25.1674 14.8613 26.0694C15.4641 26.9713 15.7858 28.0317 15.7858 29.1165C15.7842 30.5706 15.2057 31.9647 14.1773 32.9929C13.1489 34.0211 11.7545 34.5994 10.3001 34.6011ZM10.3001 25.003C9.48638 25.003 8.69092 25.2443 8.01433 25.6962C7.33774 26.1482 6.8104 26.7907 6.499 27.5423C6.1876 28.2939 6.10613 29.121 6.26488 29.919C6.42363 30.7169 6.81547 31.4498 7.39087 32.0251C7.96626 32.6004 8.69936 32.9922 9.49745 33.1509C10.2955 33.3096 11.1228 33.2281 11.8746 32.9168C12.6264 32.6055 13.2689 32.0782 13.721 31.4018C14.1731 30.7253 14.4144 29.93 14.4144 29.1165C14.4131 28.0259 13.9792 26.9804 13.2079 26.2092C12.4366 25.4381 11.3909 25.0043 10.3001 25.003Z" fill="#888888"/>
<path d="M39.7714 34.6011C38.6864 34.6011 37.6258 34.2794 36.7237 33.6768C35.8216 33.0741 35.1185 32.2175 34.7033 31.2153C34.2881 30.2132 34.1794 29.1104 34.3911 28.0465C34.6028 26.9826 35.1252 26.0053 35.8924 25.2383C36.6596 24.4712 37.6371 23.9489 38.7012 23.7372C39.7653 23.5256 40.8683 23.6342 41.8707 24.0493C42.8731 24.4645 43.7298 25.1674 44.3326 26.0694C44.9354 26.9713 45.2571 28.0317 45.2571 29.1165C45.2555 30.5706 44.677 31.9647 43.6486 32.9929C42.6202 34.0211 41.2258 34.5994 39.7714 34.6011ZM39.7714 25.003C38.9577 25.003 38.1622 25.2443 37.4856 25.6962C36.8091 26.1482 36.2817 26.7907 35.9703 27.5423C35.6589 28.2939 35.5774 29.121 35.7362 29.919C35.8949 30.7169 36.2868 31.4498 36.8622 32.0251C37.4376 32.6004 38.1707 32.9922 38.9688 33.1509C39.7669 33.3096 40.5941 33.2281 41.3459 32.9168C42.0977 32.6055 42.7402 32.0782 43.1923 31.4018C43.6444 30.7253 43.8857 29.93 43.8857 29.1165C43.8846 28.0258 43.4508 26.9802 42.6795 26.209C41.9081 25.4378 40.8623 25.0041 39.7714 25.003Z" fill="#888888"/>
<path d="M39.7714 31.8588C39.2289 31.8588 38.6986 31.6979 38.2476 31.3966C37.7965 31.0953 37.445 30.667 37.2374 30.1659C37.0298 29.6648 36.9754 29.1134 37.0813 28.5815C37.1871 28.0495 37.4483 27.5609 37.8319 27.1773C38.2155 26.7938 38.7043 26.5326 39.2363 26.4268C39.7684 26.321 40.3199 26.3753 40.8211 26.5829C41.3223 26.7904 41.7506 27.1419 42.052 27.5929C42.3534 28.0439 42.5143 28.5741 42.5143 29.1164C42.5143 29.8438 42.2253 30.5413 41.7109 31.0555C41.1965 31.5698 40.4989 31.8588 39.7714 31.8588ZM39.7714 27.7453C39.5002 27.7453 39.235 27.8257 39.0095 27.9764C38.784 28.127 38.6082 28.3412 38.5044 28.5917C38.4006 28.8423 38.3734 29.118 38.4263 29.3839C38.4793 29.6499 38.6099 29.8942 38.8017 30.086C38.9935 30.2778 39.2378 30.4083 39.5039 30.4613C39.7699 30.5142 40.0457 30.487 40.2962 30.3832C40.5468 30.2794 40.761 30.1037 40.9117 29.8782C41.0624 29.6527 41.1429 29.3876 41.1429 29.1164C41.1429 28.7528 40.9984 28.404 40.7412 28.1469C40.484 27.8898 40.1352 27.7453 39.7714 27.7453Z" fill="#888888"/>
<path d="M10.3001 31.8588C9.75763 31.8588 9.22733 31.6979 8.77627 31.3966C8.32521 31.0953 7.97365 30.667 7.76605 30.1659C7.55845 29.6648 7.50413 29.1134 7.60996 28.5815C7.7158 28.0495 7.97703 27.5609 8.36062 27.1773C8.74422 26.7938 9.23295 26.5326 9.76501 26.4268C10.2971 26.321 10.8486 26.3753 11.3498 26.5829C11.851 26.7904 12.2793 27.1419 12.5807 27.5929C12.8821 28.0439 13.043 28.5741 13.043 29.1164C13.043 29.8438 12.754 30.5413 12.2396 31.0555C11.7252 31.5698 11.0276 31.8588 10.3001 31.8588ZM10.3001 27.7453C10.0289 27.7453 9.76372 27.8257 9.53819 27.9764C9.31266 28.127 9.13688 28.3412 9.03308 28.5917C8.92928 28.8423 8.90212 29.118 8.95504 29.3839C9.00796 29.6499 9.13857 29.8942 9.33037 30.086C9.52217 30.2778 9.76653 30.4083 10.0326 30.4613C10.2986 30.5142 10.5743 30.487 10.8249 30.3832C11.0755 30.2794 11.2897 30.1037 11.4404 29.8782C11.5911 29.6527 11.6715 29.3876 11.6715 29.1164C11.6715 28.7528 11.5271 28.404 11.2699 28.1469C11.0127 27.8898 10.6638 27.7453 10.3001 27.7453Z" fill="#888888"/>
<path d="M31.5429 21.5751L0.685714 21.5751C0.503852 21.5751 0.329437 21.5029 0.200841 21.3743C0.0722447 21.2458 0 21.0714 0 20.8896C0 20.7077 0.0722447 20.5334 0.200841 20.4048C0.329437 20.2762 0.503852 20.204 0.685714 20.204L31.5429 20.204C31.7247 20.204 31.8991 20.2762 32.0277 20.4048C32.1563 20.5334 32.2286 20.7077 32.2286 20.8896C32.2286 21.0714 32.1563 21.2458 32.0277 21.3743C31.8991 21.5029 31.7247 21.5751 31.5429 21.5751Z" fill="#888888"/>
</svg>
